<svg width="256" height="256" viewBox="0 0 256 256" fill="none" xmlns="http://www.w3.org/2000/svg">
<mask id="mask0" mask-type="alpha" maskUnits="userSpaceOnUse" x="0" y="0" width="256" height="256">
<rect width="256" height="256" fill="url(#paint0_linear)"/>
</mask>
<g mask="url(#mask0)">
<rect width="256" height="256" fill="url(#paint1_linear)"/>
<path d="M245.899 131.645H10.1006C9.82444 131.646 9.55103 131.7 9.296 131.806C9.04097 131.912 8.80931 132.067 8.61425 132.262C8.41919 132.457 8.26455 132.689 8.15916 132.944C8.05377 133.198 7.99969 133.472 8.00001 133.747V277.828C7.99905 278.384 8.10783 278.935 8.32016 279.449C8.53248 279.963 8.84419 280.431 9.23747 280.825C9.63075 281.219 10.0979 281.532 10.6123 281.745C11.1267 281.959 11.6782 282.07 12.2353 282.071H243.765C244.322 282.07 244.873 281.959 245.388 281.745C245.902 281.532 246.369 281.219 246.763 280.825C247.156 280.431 247.468 279.963 247.68 279.449C247.892 278.935 248.001 278.384 248 277.828V133.747C248 133.472 247.946 133.198 247.841 132.944C247.735 132.689 247.581 132.457 247.386 132.262C247.191 132.067 246.959 131.912 246.704 131.806C246.449 131.7 246.176 131.646 245.899 131.645V131.645Z" fill="url(#paint2_linear)"/>
<path d="M247.046 140.591V276.98C247.046 278.092 246.603 279.158 245.816 279.945C245.029 280.731 243.961 281.173 242.847 281.174H13.1943C12.0801 281.174 11.0115 280.732 10.2236 279.945C9.43571 279.159 8.99309 278.092 8.99309 276.98V140.591H247.046Z" fill="white"/>
<path d="M40.3732 138.936V281.174H13.1943C12.0801 281.174 11.0115 280.732 10.2236 279.945C9.43571 279.159 8.99309 278.092 8.99309 276.979V138.948L40.3732 138.936Z" fill="#D7D9E1"/>
<path d="M247.046 134.53V140.591H8.99309V134.53C8.99309 133.978 9.2126 133.449 9.60335 133.059C9.99409 132.669 10.5241 132.45 11.0767 132.45H244.962C245.515 132.45 246.045 132.669 246.435 133.059C246.826 133.449 247.046 133.978 247.046 134.53Z" fill="#EDEDF4"/>
<path opacity="0.8" d="M12.7659 137.429C13.3036 137.429 13.7395 136.994 13.7395 136.457C13.7395 135.92 13.3036 135.485 12.7659 135.485C12.2282 135.485 11.7923 135.92 11.7923 136.457C11.7923 136.994 12.2282 137.429 12.7659 137.429Z" fill="#FA5959"/>
<path opacity="0.8" d="M15.4434 137.429C15.9811 137.429 16.417 136.994 16.417 136.457C16.417 135.92 15.9811 135.485 15.4434 135.485C14.9057 135.485 14.4698 135.92 14.4698 136.457C14.4698 136.994 14.9057 137.429 15.4434 137.429Z" fill="#FED253"/>
<path opacity="0.8" d="M18.1209 137.429C18.6586 137.429 19.0945 136.994 19.0945 136.457C19.0945 135.92 18.6586 135.485 18.1209 135.485C17.5832 135.485 17.1472 135.92 17.1472 136.457C17.1472 136.994 17.5832 137.429 18.1209 137.429Z" fill="#8CCF4D"/>
<path d="M102.199 152.542H79.3184V154.972H102.199V152.542Z" fill="#EDEDF4"/>
<path d="M207.838 159.589H79.3184V162.02H207.838V159.589Z" fill="#EDEDF4"/>
<path d="M207.838 166.637H79.3184V169.067H207.838V166.637Z" fill="#EDEDF4"/>
<path d="M207.838 173.684H79.3184V176.114H207.838V173.684Z" fill="#EDEDF4"/>
<path d="M207.838 180.732H79.3184V183.162H207.838V180.732Z" fill="#EDEDF4"/>
<path d="M35.0183 152.542H12.1379V154.972H35.0183V152.542Z" fill="#EDEDF4"/>
<path d="M35.0183 159.589H12.1379V162.02H35.0183V159.589Z" fill="#EDEDF4"/>
<path d="M35.0183 166.637H12.1379V169.067H35.0183V166.637Z" fill="#EDEDF4"/>
<path d="M35.0183 173.684H12.1379V176.114H35.0183V173.684Z" fill="#EDEDF4"/>
<path d="M35.0183 180.732H12.1379V183.162H35.0183V180.732Z" fill="#EDEDF4"/>
<path d="M141.872 128.972V128H140.411V128.972H141.872Z" fill="url(#paint3_linear)"/>
<path d="M245.038 285.529C245.026 285.545 245.013 285.561 244.999 285.575C244.919 285.643 244.824 285.69 244.721 285.713C244.518 285.773 244.308 285.808 244.096 285.818H244.032C243.912 285.826 243.79 285.826 243.67 285.818C243.582 285.806 243.493 285.8 243.404 285.801V285.801C243.276 285.818 243.149 285.849 243.027 285.893C242.754 285.969 242.473 286.009 242.19 286.012H242.088C241.771 286.012 241.45 286.012 241.131 286.012H240.978C240.432 286.012 239.892 286.114 239.347 286.122H239.172C238.635 286.132 238.11 285.975 237.667 285.672C237.582 285.616 237.514 285.538 237.47 285.446C237.435 285.351 237.422 285.248 237.434 285.147C237.426 284.963 237.492 284.783 237.616 284.647C237.702 284.58 237.801 284.532 237.906 284.506L238.461 284.331L239.055 284.153L239.094 284.141L239.206 284.11L239.276 284.085C239.362 284.057 239.443 284.018 239.52 283.971C239.617 283.908 239.7 283.825 239.763 283.728C239.763 283.709 239.787 283.689 239.797 283.67V283.624C239.78 283.497 239.765 283.38 239.744 283.244C239.46 283.18 239.201 283.033 238.999 282.824C238.824 282.652 238.678 282.455 238.563 282.238C238.342 281.751 238.152 281.25 237.996 280.739C237.686 279.986 237.309 279.263 236.869 278.579C236.482 277.935 236.095 277.291 235.652 276.683C235.36 276.282 235.046 275.896 234.756 275.492C233.94 274.366 233.355 273.089 233.035 271.735C232.985 271.476 232.915 271.221 232.826 270.972C232.653 270.549 232.339 270.207 232.096 269.818C231.831 269.402 231.65 268.938 231.563 268.452C231.511 268.175 231.426 267.879 231.151 267.849L231.122 267.908C230.552 269.018 229.966 270.144 229.104 271.048C228.966 271.181 228.84 271.325 228.727 271.48C228.637 271.63 228.555 271.785 228.483 271.944C228.347 272.231 228.166 272.495 227.948 272.727C227.882 272.792 227.811 272.852 227.736 272.907C227.634 272.979 227.522 273.035 227.403 273.072C227.356 273.087 227.308 273.098 227.259 273.106C227.26 273.117 227.26 273.129 227.259 273.14C227.259 273.154 227.259 273.167 227.259 273.179C227.407 273.985 227.343 274.815 227.074 275.589C227.074 275.614 227.057 275.638 227.05 275.66C227.008 275.774 226.962 275.884 226.914 275.993C226.789 276.26 226.643 276.515 226.529 276.788C226.509 276.834 226.49 276.88 226.473 276.926C226.066 278.005 226.166 279.208 226.118 280.367C226.113 280.621 226.083 280.873 226.028 281.12C225.959 281.4 225.85 281.689 225.784 281.976C225.733 282.193 225.733 282.419 225.784 282.637H225.76C225.65 282.678 225.541 282.715 225.431 282.749V282.763C225.473 282.989 225.509 283.215 225.548 283.439C225.563 283.635 225.636 283.823 225.757 283.978C225.792 284.012 225.825 284.047 225.855 284.085C225.935 284.209 225.855 284.374 225.879 284.523C225.901 284.732 226.096 284.909 226.064 285.118C226.05 285.181 226.02 285.24 225.978 285.289C225.935 285.337 225.881 285.375 225.821 285.397C225.771 285.421 225.719 285.438 225.665 285.449H225.633L225.451 285.47C224.703 285.578 223.944 285.586 223.194 285.492C223.046 285.468 222.9 285.434 222.751 285.422C222.563 285.413 222.374 285.421 222.187 285.446C220.805 285.576 219.417 285.603 218.032 285.526C217.671 285.507 217.258 285.449 217.058 285.14C216.997 285.003 216.964 284.855 216.96 284.704C216.957 284.554 216.984 284.405 217.038 284.265C217.06 284.156 217.101 284.053 217.16 283.959C217.167 283.949 217.174 283.939 217.182 283.93C217.367 283.701 217.718 283.687 218.017 283.687L218.991 283.716C219.087 283.724 219.184 283.715 219.278 283.692C219.428 283.622 219.572 283.541 219.709 283.449C219.896 283.359 220.132 283.351 220.266 283.206L220.283 283.184C220.309 283.151 220.331 283.116 220.351 283.079L220.366 283.06C220.367 283.053 220.367 283.047 220.366 283.04C220.49 282.877 220.709 282.824 220.884 282.719C220.912 282.705 220.937 282.687 220.96 282.666L220.979 282.649C220.791 282.515 220.627 282.351 220.492 282.163C220.441 282.107 220.403 282.041 220.38 281.969C220.369 281.913 220.373 281.856 220.393 281.803C220.397 281.791 220.403 281.779 220.41 281.767C220.478 281.631 220.619 281.509 220.697 281.371V281.359C220.758 281.255 220.787 281.135 220.781 281.015C220.776 280.895 220.735 280.779 220.665 280.681C220.746 279.356 221.111 278.061 221.193 276.734C221.225 276.207 221.21 275.677 221.235 275.15C221.259 274.622 221.318 274.107 221.376 273.589C221.51 272.404 221.831 271.242 221.787 270.051C221.779 269.94 221.779 269.829 221.787 269.718C221.787 269.718 221.787 269.704 221.787 269.696C221.819 269.452 221.896 269.215 222.014 268.999C222.157 268.754 222.32 268.521 222.501 268.301C223.121 267.497 223.866 266.693 224.088 265.699C224.225 265.192 224.433 264.707 224.706 264.258C224.837 263.975 225.019 263.719 225.244 263.502C225.373 263.412 225.493 263.31 225.602 263.196C225.767 262.982 225.772 262.688 225.869 262.433C225.92 262.301 225.998 262.19 226.037 262.044C226.036 262.03 226.036 262.016 226.037 262.003C226.06 261.865 226.071 261.726 226.071 261.587C226.071 261.548 226.071 261.509 226.071 261.47C226.131 261.072 226.247 260.684 226.417 260.318L226.478 260.18C226.01 259.91 225.597 259.553 225.261 259.13C225.147 258.994 225.049 258.846 224.969 258.688C224.794 258.261 224.675 257.813 224.616 257.356C224.372 256.28 223.844 255.266 223.771 254.168C223.779 253.831 223.74 253.495 223.654 253.169C223.621 253.086 223.583 253.005 223.54 252.926C223.52 252.892 223.503 252.858 223.486 252.824C223.478 252.812 223.472 252.799 223.467 252.785L223.413 252.685L223.331 252.749C221.27 254.36 219.106 255.837 216.853 257.169L216.659 257.283C216.563 257.334 216.479 257.405 216.415 257.492L216.393 257.531C216.347 257.626 216.335 257.735 216.296 257.835C216.242 257.947 216.164 258.046 216.066 258.123C215.969 258.2 215.855 258.255 215.734 258.282C215.303 258.392 214.847 258.333 214.458 258.117C214.41 258.092 214.361 258.066 214.315 258.037C214.263 258.065 214.209 258.091 214.154 258.114C214.085 258.146 214.015 258.173 213.942 258.195C213.535 258.29 213.116 258.328 212.698 258.306C212.281 258.283 211.862 258.329 211.46 258.442C211.206 258.559 210.939 258.64 210.664 258.685H210.569C210.412 258.666 210.26 258.621 210.118 258.552L210.036 258.515C209.994 258.493 209.953 258.474 209.911 258.447C209.867 258.421 209.826 258.389 209.79 258.353C209.736 258.299 209.697 258.233 209.675 258.161C209.662 258.108 209.662 258.053 209.675 258C209.679 257.976 209.691 257.955 209.709 257.939C209.727 257.929 209.747 257.924 209.768 257.925C209.884 257.924 209.999 257.933 210.114 257.954C210.181 257.96 210.248 257.96 210.316 257.954H210.352C210.412 257.949 210.471 257.931 210.524 257.901C210.576 257.872 210.622 257.832 210.659 257.784C210.67 257.769 210.679 257.753 210.686 257.735V257.735C210.699 257.707 210.705 257.676 210.705 257.645C210.706 257.638 210.706 257.631 210.705 257.623C210.664 257.604 210.62 257.585 210.581 257.563L210.52 257.526H210.508C210.47 257.502 210.435 257.473 210.403 257.441C210.384 257.422 210.366 257.401 210.352 257.378C210.325 257.341 210.304 257.3 210.291 257.257V257.257C210.211 257.239 210.128 257.239 210.048 257.257C209.938 257.286 209.826 257.351 209.717 257.373C209.663 257.39 209.605 257.39 209.551 257.373C209.393 257.317 209.339 257.13 209.308 256.962C209.308 256.931 209.308 256.899 209.288 256.865C209.277 256.803 209.277 256.738 209.288 256.676C209.337 256.535 209.43 256.414 209.554 256.331L209.885 256.054L209.909 256.034C209.903 256.007 209.898 255.979 209.894 255.952C209.882 255.89 209.882 255.826 209.894 255.764C209.944 255.624 210.037 255.503 210.16 255.419L210.89 254.804C211.016 254.677 211.178 254.592 211.355 254.561C211.62 254.544 211.842 254.763 212.032 254.938C212.271 255.175 212.583 255.325 212.918 255.363C213.077 255.372 213.236 255.35 213.387 255.3L213.473 255.271C213.455 255.235 213.436 255.198 213.419 255.159C213.402 255.12 213.361 255.035 213.334 254.975C213.764 254.92 214.165 254.728 214.478 254.428C214.804 254.146 215.084 253.813 215.412 253.536C215.741 253.259 216.174 253.009 216.535 252.719C217.372 252.041 217.929 251.045 218.825 250.447C219.134 250.238 219.494 250.073 219.706 249.762C219.772 249.667 219.821 249.558 219.889 249.463C220.103 249.162 220.471 249.023 220.775 248.814C221.081 248.581 221.355 248.308 221.59 248.003C221.765 247.791 221.943 247.58 222.109 247.363C222.264 247.077 222.393 246.778 222.557 246.493C222.697 246.254 222.86 246.029 223.043 245.82C223.085 245.74 223.126 245.66 223.172 245.577C223.219 245.495 223.25 245.444 223.292 245.38C223.333 245.317 223.352 245.291 223.384 245.247C223.292 245.084 223.204 244.943 223.163 244.885L223.143 244.856C223.054 244.761 222.959 244.673 222.858 244.591C222.751 244.573 222.647 244.551 222.544 244.525C221.922 244.354 221.373 243.984 220.982 243.471C220.591 242.958 220.379 242.331 220.38 241.687V241.687C220.381 241.225 220.491 240.77 220.702 240.36C220.743 240.277 220.789 240.199 220.838 240.117C220.792 240.101 220.748 240.082 220.704 240.061C220.63 240.025 220.566 239.973 220.517 239.908C220.475 239.849 220.449 239.782 220.439 239.711C220.422 239.545 220.447 239.378 220.512 239.225C220.539 239.15 220.57 239.077 220.604 239.006C220.604 239.006 220.604 239.006 220.604 238.994C220.833 238.558 221.173 238.189 221.589 237.926C222.006 237.662 222.485 237.512 222.978 237.492C224.015 237.451 225.022 237.934 225.84 238.63C226.099 238.816 226.334 239.034 226.539 239.278C226.95 239.904 227.183 240.63 227.213 241.378C227.238 241.61 227.238 241.844 227.213 242.075C227.203 242.158 227.187 242.239 227.164 242.318C227.15 242.367 227.133 242.413 227.116 242.459C227.102 242.494 227.087 242.528 227.069 242.561V242.561C227.055 242.594 227.038 242.626 227.018 242.656V242.668L227.004 242.69L227.03 242.749C227.038 242.767 227.047 242.785 227.057 242.802V242.802C227.262 242.819 227.447 242.846 227.651 242.863C227.748 242.866 227.845 242.881 227.938 242.907C228.129 242.987 228.305 243.097 228.462 243.232C228.883 243.529 229.399 243.667 229.81 243.973C230.421 244.425 230.723 245.169 231.086 245.837C231.572 246.732 232.359 247.492 232.707 248.45L233.181 249.75C233.47 250.607 233.818 251.443 234.221 252.253C234.805 253.368 235.598 254.372 236.068 255.538C236.113 255.656 236.2 255.752 236.311 255.811C236.952 256.711 237.522 257.66 238.015 258.649C238.295 259.163 238.491 259.718 238.595 260.294C238.655 260.809 238.612 261.332 238.468 261.83C238.389 262.127 238.291 262.418 238.174 262.702C238.129 262.802 238.095 262.906 238.074 263.014C238.073 263.025 238.073 263.036 238.074 263.048C238.079 263.242 238.103 263.436 238.147 263.626C238.164 263.782 238.147 263.939 238.096 264.088C238.096 264.109 238.079 264.134 238.069 264.156C238.007 264.274 237.954 264.397 237.911 264.523V264.569C237.904 264.793 237.939 265.016 238.013 265.227C238.158 266.024 238.192 266.837 238.113 267.643C238.088 268.044 238.415 268.372 238.687 268.666C239.177 269.239 239.605 269.861 239.965 270.523C240.174 270.852 240.349 271.201 240.488 271.565C240.612 271.986 240.706 272.414 240.768 272.848C241.026 274.178 241.866 275.351 242.095 276.685C242.201 277.295 242.47 277.865 242.874 278.336C242.996 278.462 243.108 278.598 243.21 278.741C243.28 278.855 243.337 278.976 243.378 279.103C243.476 279.399 243.523 279.71 243.514 280.022C243.5 280.172 243.509 280.322 243.541 280.469C243.636 280.778 243.974 280.955 244.115 281.24C244.256 281.524 244.157 281.903 244.21 282.233C244.256 282.499 244.398 282.738 244.609 282.904C244.529 282.975 244.444 283.04 244.366 283.103C244.446 283.165 244.517 283.239 244.575 283.322C244.614 283.378 244.646 283.438 244.67 283.502C244.804 283.811 244.809 284.178 244.914 284.503C244.979 284.633 245.004 284.78 244.984 284.924C244.967 284.963 244.956 285.005 244.95 285.048C244.95 285.14 245.045 285.198 245.081 285.291C245.096 285.331 245.099 285.374 245.091 285.415C245.084 285.457 245.065 285.496 245.038 285.529Z" fill="url(#paint4_linear)"/>
<path d="M223.679 246.253C224.286 246.054 224.861 245.765 225.382 245.395L227.259 244.202C227.004 244.167 226.761 244.073 226.55 243.927C226.338 243.781 226.165 243.587 226.042 243.361C225.804 242.906 225.649 242.412 225.585 241.903C224.791 242.247 224.062 242.724 223.428 243.312C223.167 243.536 222.62 243.871 222.539 244.219C222.459 244.566 222.968 244.848 223.165 245.082C223.24 245.167 223.878 246.199 223.679 246.253Z" fill="#FBBEBE"/>
<path opacity="0.1" d="M223.679 246.253C224.286 246.054 224.861 245.765 225.382 245.395L227.259 244.202C227.004 244.167 226.761 244.073 226.55 243.927C226.338 243.781 226.165 243.587 226.042 243.361C225.804 242.906 225.649 242.412 225.585 241.903C224.791 242.247 224.062 242.724 223.428 243.312C223.167 243.536 222.62 243.871 222.539 244.219C222.459 244.566 222.968 244.848 223.165 245.082C223.24 245.167 223.878 246.199 223.679 246.253Z" fill="black"/>
<path d="M213.419 256.112C213.103 256.311 212.739 256.421 212.365 256.43C212.031 256.39 211.72 256.241 211.479 256.007C211.282 255.832 211.07 255.614 210.805 255.633C210.628 255.664 210.466 255.749 210.34 255.876L209.61 256.489C209.5 256.545 209.415 256.64 209.37 256.755C209.325 256.87 209.324 256.997 209.366 257.113C209.4 257.276 209.454 257.468 209.61 257.524C209.765 257.58 209.938 257.458 210.096 257.414C210.198 257.388 210.305 257.39 210.406 257.42C210.506 257.449 210.597 257.505 210.668 257.582C210.726 257.641 210.761 257.719 210.766 257.801C210.766 257.983 210.561 258.102 210.379 258.112C210.196 258.122 210.014 258.061 209.831 258.073C209.811 258.072 209.79 258.077 209.773 258.088C209.755 258.102 209.743 258.123 209.739 258.146C209.726 258.21 209.731 258.276 209.751 258.337C209.772 258.399 209.808 258.454 209.855 258.498C209.952 258.584 210.063 258.651 210.184 258.695C210.325 258.766 210.478 258.811 210.634 258.829C210.943 258.848 211.228 258.676 211.523 258.586C211.925 258.474 212.343 258.429 212.759 258.45C213.176 258.473 213.594 258.436 214.001 258.34C214.204 258.291 214.394 258.198 214.557 258.066C214.719 257.935 214.85 257.768 214.94 257.58C214.958 257.543 214.964 257.503 214.957 257.463C214.941 257.421 214.911 257.386 214.872 257.363C214.31 256.948 214.081 256.442 213.448 256.148L213.419 256.112Z" fill="#FBBEBE"/>
<path opacity="0.1" d="M213.419 256.112C213.103 256.311 212.739 256.421 212.365 256.43C212.031 256.39 211.72 256.241 211.479 256.007C211.282 255.832 211.07 255.614 210.805 255.633C210.628 255.664 210.466 255.749 210.34 255.876L209.61 256.489C209.5 256.545 209.415 256.64 209.37 256.755C209.325 256.87 209.324 256.997 209.366 257.113C209.4 257.276 209.454 257.468 209.61 257.524C209.765 257.58 209.938 257.458 210.096 257.414C210.198 257.388 210.305 257.39 210.406 257.42C210.506 257.449 210.597 257.505 210.668 257.582C210.726 257.641 210.761 257.719 210.766 257.801C210.766 257.983 210.561 258.102 210.379 258.112C210.196 258.122 210.014 258.061 209.831 258.073C209.811 258.072 209.79 258.077 209.773 258.088C209.755 258.102 209.743 258.123 209.739 258.146C209.726 258.21 209.731 258.276 209.751 258.337C209.772 258.399 209.808 258.454 209.855 258.498C209.952 258.584 210.063 258.651 210.184 258.695C210.325 258.766 210.478 258.811 210.634 258.829C210.943 258.848 211.228 258.676 211.523 258.586C211.925 258.474 212.343 258.429 212.759 258.45C213.176 258.473 213.594 258.436 214.001 258.34C214.204 258.291 214.394 258.198 214.557 258.066C214.719 257.935 214.85 257.768 214.94 257.58C214.958 257.543 214.964 257.503 214.957 257.463C214.941 257.421 214.911 257.386 214.872 257.363C214.31 256.948 214.081 256.442 213.448 256.148L213.419 256.112Z" fill="black"/>
<path d="M225.232 245.371C225.076 245.269 224.898 245.205 224.714 245.183C224.529 245.16 224.341 245.18 224.165 245.242C223.813 245.368 223.498 245.578 223.245 245.854C222.994 246.111 222.776 246.398 222.598 246.71C222.425 247.009 222.291 247.327 222.123 247.628C221.807 248.157 221.44 248.654 221.028 249.113C220.794 249.417 220.519 249.689 220.213 249.92C219.911 250.129 219.543 250.267 219.329 250.566C219.261 250.661 219.212 250.768 219.144 250.865C218.935 251.171 218.577 251.337 218.265 251.543C217.37 252.139 216.805 253.128 215.98 253.801C215.619 254.09 215.213 254.318 214.858 254.615C214.502 254.911 214.249 255.22 213.925 255.499C213.613 255.799 213.211 255.989 212.781 256.041C213.046 256.69 213.425 257.286 213.901 257.801C214.388 258.287 215.118 258.615 215.8 258.42C215.921 258.393 216.034 258.339 216.132 258.262C216.229 258.185 216.308 258.087 216.362 257.976C216.389 257.858 216.429 257.743 216.479 257.633C216.547 257.546 216.634 257.475 216.734 257.427C219.427 255.857 221.994 254.081 224.411 252.114C225.061 251.587 225.704 251.115 226.359 250.608C226.598 250.439 226.819 250.246 227.018 250.032C227.296 249.701 227.469 249.295 227.516 248.866C227.563 248.437 227.482 248.004 227.284 247.621C227.105 247.327 226.901 247.05 226.673 246.792C226.261 246.254 225.776 245.776 225.232 245.371V245.371Z" fill="#6C63FF"/>
<path opacity="0.1" d="M225.232 245.371C225.076 245.269 224.898 245.205 224.714 245.183C224.529 245.16 224.341 245.18 224.165 245.242C223.813 245.368 223.498 245.578 223.245 245.854C222.994 246.111 222.776 246.398 222.598 246.71C222.425 247.009 222.291 247.327 222.123 247.628C221.807 248.157 221.44 248.654 221.028 249.113C220.794 249.417 220.519 249.689 220.213 249.92C219.911 250.129 219.543 250.267 219.329 250.566C219.261 250.661 219.212 250.768 219.144 250.865C218.935 251.171 218.577 251.337 218.265 251.543C217.37 252.139 216.805 253.128 215.98 253.801C215.619 254.09 215.213 254.318 214.858 254.615C214.502 254.911 214.249 255.22 213.925 255.499C213.613 255.799 213.211 255.989 212.781 256.041C213.046 256.69 213.425 257.286 213.901 257.801C214.388 258.287 215.118 258.615 215.8 258.42C215.921 258.393 216.034 258.339 216.132 258.262C216.229 258.185 216.308 258.087 216.362 257.976C216.389 257.858 216.429 257.743 216.479 257.633C216.547 257.546 216.634 257.475 216.734 257.427C219.427 255.857 221.994 254.081 224.411 252.114C225.061 251.587 225.704 251.115 226.359 250.608C226.598 250.439 226.819 250.246 227.018 250.032C227.296 249.701 227.469 249.295 227.516 248.866C227.563 248.437 227.482 248.004 227.284 247.621C227.105 247.327 226.901 247.05 226.673 246.792C226.261 246.254 225.776 245.776 225.232 245.371V245.371Z" fill="black"/>
<path d="M223.34 244.858C224.956 244.858 226.266 243.55 226.266 241.937C226.266 240.324 224.956 239.016 223.34 239.016C221.724 239.016 220.415 240.324 220.415 241.937C220.415 243.55 221.724 244.858 223.34 244.858Z" fill="#FBBEBE"/>
<path d="M244.551 282.931C243.643 283.711 242.416 284.051 241.221 284.063C240.715 284.098 240.209 283.99 239.761 283.752C239.731 283.587 239.719 283.41 239.688 283.244C239.431 283.171 239.193 283.044 238.99 282.872C238.786 282.699 238.623 282.485 238.51 282.243C238.288 281.759 238.099 281.262 237.942 280.753C237.633 280.005 237.255 279.286 236.815 278.605C236.431 277.966 236.044 277.327 235.598 276.724C235.306 276.323 234.992 275.942 234.705 275.541C233.89 274.423 233.305 273.154 232.984 271.808C232.936 271.55 232.866 271.296 232.775 271.05C232.567 270.646 232.322 270.262 232.045 269.903C231.78 269.489 231.599 269.028 231.512 268.544C231.46 268.27 231.378 267.973 231.1 267.944C230.521 269.069 229.929 270.209 229.056 271.123C228.917 271.254 228.791 271.397 228.678 271.551C228.588 271.7 228.506 271.855 228.435 272.015C228.301 272.301 228.121 272.564 227.902 272.792C227.718 272.988 227.477 273.119 227.213 273.167C227.408 274.134 227.293 275.139 226.882 276.037C226.76 276.304 226.614 276.557 226.5 276.826C226.03 277.932 226.137 279.184 226.088 280.384C226.085 280.636 226.056 280.887 226.001 281.133C225.877 281.619 225.626 282.148 225.757 282.639C224.492 283.125 223.08 283.091 221.748 282.882C221.486 282.859 221.232 282.782 221.001 282.656C220.813 282.522 220.649 282.358 220.514 282.17C220.463 282.114 220.425 282.048 220.402 281.976C220.351 281.745 220.607 281.577 220.724 281.373C220.787 281.269 220.819 281.148 220.814 281.026C220.809 280.905 220.768 280.787 220.697 280.688C220.777 279.368 221.142 278.08 221.223 276.763C221.257 276.238 221.242 275.713 221.266 275.188C221.291 274.664 221.347 274.153 221.405 273.638C221.539 272.462 221.863 271.308 221.817 270.124C221.802 269.759 221.886 269.398 222.06 269.077C222.203 268.833 222.366 268.601 222.547 268.384C223.165 267.585 223.91 266.785 224.131 265.798C224.269 265.295 224.476 264.813 224.747 264.367C224.88 264.086 225.063 263.831 225.288 263.616C225.416 263.526 225.535 263.423 225.643 263.31C225.808 263.099 225.813 262.805 225.913 262.552C225.974 262.426 226.028 262.297 226.076 262.165C226.107 262.017 226.123 261.865 226.122 261.713C226.178 261.224 226.32 260.749 226.541 260.309C226.074 260.04 225.661 259.687 225.324 259.266C225.211 259.13 225.112 258.983 225.03 258.826C224.858 258.402 224.739 257.958 224.677 257.504C224.433 256.433 223.91 255.427 223.834 254.345C223.842 254.01 223.803 253.675 223.718 253.351C223.664 253.219 223.601 253.09 223.53 252.965C223.46 252.842 223.407 252.711 223.372 252.574C223.306 252.277 223.396 251.966 223.372 251.665C223.323 251.402 223.258 251.142 223.177 250.887C223.12 250.547 223.11 250.202 223.148 249.859C223.203 249.457 223.229 249.05 223.226 248.644C223.173 247.985 223.259 247.322 223.48 246.699C223.7 246.075 224.05 245.505 224.506 245.026L224.531 245.001C224.723 244.805 224.932 244.622 225.107 244.408C225.351 244.124 225.514 243.786 225.76 243.509C225.869 243.385 226.003 243.266 226.101 243.15C226.199 243.018 226.308 242.896 226.427 242.783C226.487 242.727 226.561 242.686 226.64 242.665C226.72 242.644 226.804 242.643 226.884 242.661C226.903 242.811 226.95 242.956 227.023 243.089C227.232 243.106 227.42 243.135 227.627 243.152C227.724 243.155 227.82 243.17 227.914 243.196C228.105 243.274 228.282 243.383 228.437 243.519C228.856 243.813 229.372 243.952 229.783 244.248C230.394 244.695 230.696 245.436 231.056 246.1C231.543 246.989 232.329 247.745 232.677 248.695C232.84 249.128 232.997 249.559 233.15 249.988C233.439 250.84 233.787 251.671 234.189 252.476C234.773 253.582 235.564 254.581 236.032 255.74C236.078 255.856 236.164 255.952 236.275 256.01C236.915 256.905 237.485 257.848 237.979 258.831C238.259 259.342 238.454 259.894 238.556 260.467C238.668 261.278 238.444 262.1 238.137 262.86C238.085 262.969 238.05 263.084 238.032 263.203C238.036 263.396 238.061 263.589 238.105 263.777C238.124 263.956 238.097 264.137 238.028 264.304C237.965 264.421 237.912 264.543 237.869 264.668C237.847 264.906 237.879 265.145 237.964 265.368C238.109 266.16 238.142 266.968 238.062 267.769C238.04 268.168 238.366 268.498 238.636 268.785C239.125 269.354 239.553 269.972 239.914 270.63C240.12 270.957 240.295 271.304 240.435 271.665C240.56 272.084 240.654 272.511 240.717 272.943C240.961 274.263 241.813 275.429 242.039 276.753C242.145 277.36 242.415 277.926 242.818 278.391C242.94 278.518 243.052 278.654 243.154 278.797C243.224 278.909 243.28 279.03 243.319 279.157C243.419 279.451 243.466 279.76 243.458 280.071C243.441 280.219 243.45 280.37 243.485 280.515C243.577 280.822 243.918 281.001 244.057 281.281C244.195 281.56 244.101 281.939 244.154 282.267C244.197 282.531 244.339 282.768 244.551 282.931V282.931Z" fill="#6C63FF"/>
<path d="M214.025 255.205C213.709 255.404 213.345 255.514 212.971 255.524C212.637 255.484 212.326 255.335 212.085 255.101C211.886 254.926 211.674 254.707 211.411 254.727C211.234 254.758 211.072 254.842 210.946 254.97L210.216 255.582C210.093 255.664 210 255.785 209.953 255.925C209.938 256.019 209.944 256.115 209.97 256.207C210.002 256.37 210.058 256.561 210.213 256.617C210.369 256.673 210.542 256.552 210.7 256.508C210.802 256.481 210.909 256.483 211.01 256.512C211.11 256.542 211.201 256.598 211.272 256.676C211.331 256.734 211.366 256.812 211.37 256.894C211.37 257.077 211.167 257.198 210.983 257.205C210.798 257.213 210.62 257.154 210.437 257.167C210.416 257.165 210.395 257.17 210.376 257.181C210.359 257.197 210.347 257.217 210.342 257.239C210.331 257.306 210.337 257.374 210.36 257.438C210.383 257.501 210.422 257.558 210.474 257.602C210.572 257.687 210.684 257.754 210.805 257.801C210.946 257.869 211.097 257.914 211.253 257.932C211.564 257.952 211.849 257.779 212.141 257.689C212.544 257.576 212.962 257.529 213.38 257.551C213.797 257.574 214.215 257.537 214.621 257.441C214.825 257.392 215.014 257.298 215.176 257.167C215.338 257.035 215.469 256.869 215.559 256.681C215.578 256.645 215.584 256.604 215.576 256.564C215.56 256.522 215.531 256.487 215.493 256.464C214.928 256.049 214.699 255.543 214.066 255.249L214.025 255.205Z" fill="#FBBEBE"/>
<path d="M221.914 240.143C221.744 240.196 221.581 240.267 221.427 240.355C221.316 240.397 221.197 240.416 221.079 240.409C220.96 240.402 220.844 240.371 220.738 240.316C220.665 240.281 220.6 240.228 220.551 240.163C220.496 240.058 220.467 239.942 220.467 239.824C220.467 239.706 220.496 239.589 220.551 239.485C220.753 238.991 221.093 238.566 221.532 238.26C221.97 237.955 222.487 237.783 223.021 237.764C224.056 237.723 225.064 238.204 225.879 238.894C226.122 239.094 226.34 239.322 226.529 239.572C226.939 240.194 227.172 240.916 227.203 241.66C227.236 241.972 227.215 242.288 227.14 242.593C227.104 242.741 227.039 242.881 226.949 243.004C226.858 243.127 226.743 243.23 226.612 243.308C226.464 243.372 226.304 243.401 226.143 243.394C225.982 243.387 225.825 243.343 225.684 243.266C225.397 243.109 225.131 242.916 224.893 242.69C224.779 242.585 224.645 242.502 224.499 242.447C224.425 242.422 224.346 242.418 224.27 242.436C224.194 242.454 224.125 242.493 224.071 242.549C223.937 242.712 223.968 242.977 223.847 243.152C223.772 243.231 223.678 243.291 223.575 243.326C223.471 243.36 223.36 243.369 223.253 243.351C223.15 243.365 223.046 243.354 222.948 243.322C222.851 243.289 222.761 243.234 222.688 243.162C222.638 243.075 222.608 242.979 222.598 242.88C222.588 242.78 222.6 242.68 222.632 242.586C222.697 242.396 222.731 242.196 222.732 241.995C222.69 241.597 222.337 241.344 222.228 240.975C222.157 240.732 222.316 240.63 222.299 240.411C222.293 240.367 222.278 240.325 222.255 240.287C222.232 240.25 222.202 240.217 222.166 240.192C222.129 240.167 222.088 240.15 222.045 240.141C222.002 240.133 221.957 240.134 221.914 240.143V240.143Z" fill="#3F3D56"/>
<path opacity="0.1" d="M227.736 249.628C227.537 249.842 227.316 250.035 227.077 250.204C226.41 250.712 225.767 251.176 225.129 251.711C224.605 252.137 224.076 252.552 223.542 252.958C223.472 252.835 223.419 252.703 223.384 252.566C223.318 252.27 223.408 251.959 223.384 251.657C223.335 251.394 223.27 251.135 223.189 250.88C223.132 250.54 223.122 250.194 223.16 249.852C223.215 249.449 223.241 249.043 223.238 248.637C223.185 247.978 223.271 247.315 223.492 246.691C223.712 246.068 224.062 245.498 224.518 245.018L224.543 244.994C224.652 244.932 224.767 244.88 224.886 244.841C225.062 244.779 225.249 244.759 225.434 244.782C225.619 244.804 225.796 244.868 225.952 244.97C226.504 245.373 226.995 245.853 227.412 246.394C227.641 246.65 227.845 246.927 228.023 247.22C228.219 247.605 228.296 248.039 228.245 248.467C228.194 248.896 228.017 249.3 227.736 249.628V249.628Z" fill="black"/>
<path d="M225.838 244.464C225.681 244.362 225.504 244.298 225.318 244.276C225.133 244.253 224.945 244.274 224.769 244.335C224.418 244.462 224.103 244.672 223.851 244.948C223.599 245.204 223.381 245.492 223.202 245.803C223.031 246.102 222.895 246.421 222.729 246.722C222.413 247.251 222.045 247.749 221.632 248.207C221.399 248.512 221.125 248.783 220.819 249.013C220.514 249.222 220.147 249.361 219.933 249.66C219.864 249.755 219.816 249.862 219.75 249.959C219.538 250.265 219.18 250.43 218.869 250.637C217.976 251.232 217.408 252.221 216.586 252.894C216.226 253.184 215.819 253.412 215.464 253.709C215.108 254.005 214.855 254.314 214.529 254.593C214.218 254.893 213.817 255.083 213.387 255.135C213.651 255.784 214.029 256.38 214.505 256.894C214.991 257.38 215.734 257.709 216.406 257.514C216.526 257.487 216.64 257.433 216.736 257.356C216.833 257.279 216.912 257.181 216.965 257.069C216.995 256.952 217.035 256.837 217.085 256.727C217.153 256.639 217.241 256.569 217.34 256.52C220.033 254.95 222.6 253.174 225.017 251.208C225.667 250.681 226.31 250.209 226.965 249.701C227.204 249.533 227.425 249.34 227.624 249.125C227.902 248.795 228.076 248.389 228.124 247.96C228.171 247.531 228.091 247.098 227.892 246.715C227.714 246.421 227.509 246.144 227.279 245.888C226.867 245.349 226.382 244.869 225.838 244.464V244.464Z" fill="#6C63FF"/>
<g opacity="0.1">
<path opacity="0.1" d="M223.45 242.941C223.347 242.955 223.243 242.945 223.145 242.912C223.047 242.879 222.958 242.824 222.885 242.751C222.836 242.664 222.805 242.568 222.795 242.469C222.786 242.37 222.797 242.27 222.829 242.175C222.895 241.986 222.928 241.787 222.929 241.587C222.888 241.186 222.535 240.936 222.425 240.564C222.355 240.321 222.513 240.219 222.496 240C222.489 239.958 222.473 239.918 222.45 239.882C222.427 239.846 222.397 239.815 222.362 239.79C222.327 239.766 222.287 239.749 222.245 239.74C222.204 239.732 222.16 239.732 222.118 239.74C221.949 239.793 221.786 239.864 221.632 239.952C221.521 239.994 221.402 240.013 221.283 240.007C221.165 240.001 221.049 239.969 220.943 239.915C220.87 239.878 220.806 239.826 220.755 239.762C220.7 239.657 220.671 239.54 220.671 239.422C220.671 239.303 220.7 239.186 220.755 239.082V239.06C220.673 239.195 220.602 239.337 220.546 239.485C220.491 239.59 220.462 239.706 220.462 239.824C220.462 239.942 220.491 240.058 220.546 240.163C220.595 240.228 220.66 240.281 220.733 240.316C220.84 240.37 220.957 240.401 221.077 240.407C221.197 240.412 221.316 240.392 221.427 240.348C221.581 240.26 221.745 240.189 221.914 240.136C221.956 240.127 221.999 240.127 222.041 240.136C222.083 240.144 222.123 240.161 222.158 240.185C222.194 240.21 222.224 240.241 222.247 240.277C222.269 240.313 222.285 240.354 222.291 240.396C222.308 240.615 222.15 240.717 222.221 240.96C222.33 241.329 222.683 241.582 222.725 241.981C222.724 242.182 222.69 242.381 222.625 242.571C222.593 242.666 222.581 242.766 222.591 242.865C222.6 242.964 222.631 243.061 222.681 243.147C222.754 243.22 222.843 243.274 222.941 243.307C223.039 243.34 223.143 243.35 223.245 243.337C223.353 243.355 223.464 243.346 223.567 243.311C223.671 243.276 223.764 243.217 223.839 243.137C223.896 243.043 223.933 242.938 223.949 242.829C223.798 242.916 223.624 242.955 223.45 242.941V242.941Z" fill="black"/>
<path opacity="0.1" d="M226.806 242.904C226.66 242.969 226.5 242.999 226.339 242.992C226.179 242.985 226.022 242.942 225.881 242.865C225.591 242.708 225.321 242.515 225.078 242.292C224.965 242.185 224.832 242.102 224.686 242.049C224.613 242.023 224.533 242.019 224.457 242.037C224.381 242.055 224.312 242.095 224.258 242.151C224.19 242.253 224.146 242.369 224.131 242.491C224.184 242.46 224.243 242.44 224.304 242.433C224.365 242.426 224.426 242.433 224.484 242.452C224.63 242.507 224.764 242.59 224.879 242.695C225.116 242.921 225.382 243.114 225.67 243.271C225.811 243.348 225.968 243.392 226.129 243.399C226.289 243.406 226.45 243.377 226.597 243.312C226.853 243.162 227.039 242.918 227.116 242.632C227.035 242.745 226.929 242.838 226.806 242.904V242.904Z" fill="black"/>
</g>
<path d="M203.943 238.083H183.984V258.01H203.943V238.083Z" fill="#D7D9E1"/>
<path d="M190.58 252.267H197.344V253.534H190.58V252.267ZM193.963 248.892C194.18 248.88 194.384 248.786 194.533 248.629C194.682 248.472 194.765 248.264 194.765 248.047C194.765 247.831 194.682 247.623 194.533 247.466C194.384 247.309 194.18 247.215 193.963 247.203C193.881 247.203 193.799 247.213 193.72 247.235L191.975 245.951L191.87 246.044L193.163 247.803C193.137 247.882 193.124 247.964 193.124 248.046C193.123 248.269 193.211 248.484 193.368 248.642C193.526 248.801 193.74 248.891 193.963 248.892V248.892Z" fill="#6C63FF"/>
<path d="M193.963 242.561C192.934 242.561 191.925 242.85 191.051 243.394C190.178 243.939 189.475 244.718 189.024 245.642C188.572 246.566 188.39 247.598 188.498 248.62C188.606 249.643 188.999 250.614 189.633 251.424H191.186L191.291 251.317L191.875 250.736L191.271 250.131L190.687 250.712C190.162 250.072 189.839 249.292 189.757 248.469H190.58V247.638H189.757C189.839 246.815 190.162 246.035 190.687 245.395L191.271 245.976L191.875 245.371L191.293 244.79C191.934 244.266 192.716 243.943 193.54 243.862V244.683H194.384V243.862C195.209 243.943 195.99 244.266 196.631 244.79L196.049 245.371L196.655 245.976L197.24 245.395C197.763 246.035 198.087 246.815 198.169 247.638H197.344V248.481H198.169C198.087 249.304 197.763 250.084 197.24 250.724L196.655 250.143L196.049 250.749L196.634 251.329L196.741 251.436H198.303C198.937 250.626 199.329 249.655 199.436 248.632C199.544 247.61 199.361 246.579 198.91 245.655C198.459 244.731 197.757 243.953 196.884 243.408C196.011 242.863 195.002 242.574 193.973 242.574L193.963 242.561Z" fill="#6C63FF"/>
<path opacity="0.1" d="M99.7647 192.153H79.8052V212.08H99.7647V192.153Z" fill="black"/>
<path d="M99.2779 191.667H79.3184V211.594H99.2779V191.667Z" fill="#EDEDF4"/>
<path d="M87.183 196.569H88.8746V206.698H87.183V196.569ZM84.6466 203.742H86.3359V206.698H84.6442L84.6466 203.742ZM89.7193 202.054H91.4231V206.698H89.7193V202.054ZM92.2556 199.521H93.9472V206.698H92.2556V199.521Z" fill="#6C63FF"/>
<path opacity="0.1" d="M207.838 191.91H187.878V211.837H207.838V191.91Z" fill="black"/>
<path d="M207.351 191.424H187.391V211.351H207.351V191.424Z" fill="#EDEDF4"/>
<path d="M200.63 199.339L198.325 202.858C198.51 203.082 198.611 203.364 198.61 203.655C198.61 203.991 198.476 204.313 198.239 204.55C198.001 204.788 197.678 204.921 197.342 204.921C197.006 204.921 196.683 204.788 196.445 204.55C196.207 204.313 196.074 203.991 196.074 203.655C196.074 203.574 196.082 203.492 196.096 203.412L194.574 202.527C194.378 202.717 194.125 202.838 193.854 202.873C193.583 202.907 193.308 202.852 193.07 202.717L191.451 204.231V205.74C191.452 206.038 191.571 206.325 191.782 206.536C191.993 206.747 192.28 206.866 192.578 206.868H202.161C202.461 206.866 202.747 206.747 202.959 206.536C203.17 206.325 203.29 206.039 203.291 205.74V200.143L201.743 199.115C201.587 199.236 201.406 199.319 201.213 199.358C201.02 199.397 200.82 199.39 200.63 199.339V199.339Z" fill="#6C63FF"/>
<path d="M193.696 200.36C194.032 200.36 194.355 200.493 194.592 200.731C194.83 200.968 194.964 201.29 194.964 201.626C194.964 201.679 194.964 201.735 194.964 201.789L196.551 202.676C196.777 202.49 197.061 202.389 197.354 202.389C197.447 202.39 197.539 202.399 197.629 202.418L199.939 198.848C199.784 198.637 199.698 198.382 199.696 198.119C199.696 197.783 199.829 197.461 200.067 197.224C200.305 196.986 200.628 196.853 200.964 196.853C201.3 196.853 201.623 196.986 201.861 197.224C202.098 197.461 202.232 197.783 202.232 198.119C202.232 198.22 202.22 198.32 202.198 198.418L203.291 199.147V197.035C203.29 196.737 203.17 196.451 202.959 196.239C202.747 196.028 202.461 195.909 202.161 195.908H192.578C192.28 195.909 191.993 196.028 191.782 196.24C191.571 196.451 191.452 196.737 191.451 197.035V203.084L192.508 202.073C192.437 201.882 192.414 201.677 192.44 201.475C192.466 201.273 192.54 201.08 192.657 200.913C192.774 200.746 192.929 200.609 193.11 200.515C193.291 200.421 193.492 200.372 193.696 200.372V200.36Z" fill="#6C63FF"/>
<path opacity="0.1" d="M153.801 192.882H133.842V212.809H153.801V192.882Z" fill="black"/>
<path d="M153.314 192.396H133.355V212.323H153.314V192.396Z" fill="#EDEDF4"/>
<path d="M139.951 206.581H146.716V207.847H139.951V206.581ZM143.335 203.205C143.561 203.205 143.777 203.116 143.937 202.956C144.097 202.797 144.187 202.58 144.187 202.355C144.187 202.129 144.097 201.913 143.937 201.753C143.777 201.594 143.561 201.504 143.335 201.504C143.252 201.504 143.171 201.515 143.091 201.536L141.346 200.265L141.241 200.357L142.534 202.117C142.508 202.195 142.495 202.277 142.495 202.36C142.494 202.583 142.582 202.797 142.74 202.956C142.897 203.114 143.111 203.204 143.335 203.205V203.205Z" fill="#6C63FF"/>
<path d="M143.335 196.875C142.305 196.875 141.296 197.163 140.422 197.708C139.549 198.252 138.847 199.031 138.395 199.955C137.944 200.879 137.761 201.911 137.869 202.934C137.977 203.956 138.37 204.928 139.004 205.738H140.557L140.662 205.631L141.246 205.05L140.643 204.445L140.058 205.026C139.534 204.386 139.21 203.605 139.129 202.783H139.951V201.951H139.129C139.21 201.129 139.534 200.348 140.058 199.708L140.643 200.289L141.246 199.684L140.664 199.103C141.306 198.58 142.087 198.257 142.911 198.175V198.996H143.756V198.175C144.58 198.257 145.362 198.579 146.002 199.103L145.421 199.684L146.027 200.289L146.611 199.708C147.135 200.349 147.458 201.129 147.541 201.951H146.716V202.795H147.541C147.458 203.617 147.135 204.397 146.611 205.038L146.027 204.457L145.421 205.062L146.005 205.643L146.112 205.75H147.675C148.308 204.94 148.7 203.968 148.808 202.946C148.915 201.924 148.732 200.892 148.281 199.969C147.83 199.045 147.128 198.266 146.255 197.722C145.382 197.177 144.374 196.888 143.344 196.887L143.335 196.875Z" fill="#6C63FF"/>
<path opacity="0.1" d="M145.525 224.231H125.566V244.158H145.525V224.231Z" fill="black"/>
<path d="M143.821 222.773H123.862V242.7H143.821V222.773Z" fill="#EDEDF4"/>
<path d="M136.208 229.191L137.563 230.542L134.677 233.429L132.308 231.064L127.927 235.451L128.762 236.284L132.313 232.739L134.681 235.103L138.408 231.385L139.764 232.739V229.191H136.208Z" fill="#6C63FF"/>
<path d="M120.586 285.548C120.729 284.936 120.829 284.399 120.829 284.399C120.816 283.994 120.907 283.592 121.094 283.232V283.067V281.835C121.01 281.612 120.907 281.396 120.785 281.191C120.561 280.804 120.785 279.385 120.785 279.385C120.785 279.385 121.608 277.388 121.406 276.122C121.204 274.855 123.09 270.481 123.09 270.481C123.079 270.061 123.018 269.643 122.91 269.237C122.892 269.151 122.885 269.063 122.888 268.975C122.888 268.975 122.888 268.955 122.888 268.943C122.915 268.107 123.577 266.542 123.577 266.542L123.49 263.555C123.49 263.555 123.066 261.793 123.757 259.424C124.001 258.6 124.152 257.939 124.244 257.431C124.244 257.373 124.266 257.317 124.276 257.264C122.857 257.047 121.774 256.868 121.774 256.868C121.774 256.868 122.596 253.431 123.151 252.829C123.706 252.226 124.152 250.338 124.152 250.338C124.152 250.338 124.441 247.908 123.974 247.201C123.507 246.493 123.441 245.256 123.441 245.256C123.441 245.256 122.372 244.484 122.239 244.141C122.051 243.651 121.932 243.137 121.883 242.615C121.883 242.207 122.017 241.842 121.973 241.626C121.929 241.41 122.285 240.595 122.107 240.209C122.06 240.09 122.036 239.963 122.034 239.835V239.862C122.033 239.523 122.065 239.185 122.129 238.853C122.436 238.593 122.796 238.401 123.183 238.289L123.207 238.197L123.268 237.954C123.302 237.931 123.337 237.91 123.373 237.891V237.803V237.456L123.205 236.671C122.879 235.307 124.699 235.103 124.699 235.103C124.81 234.894 124.995 234.733 125.218 234.651C125.585 234.523 125.279 236.702 125.106 236.838C124.832 237.192 124.588 237.568 124.376 237.961V237.961L124.344 238.017C124.374 238.043 124.401 238.072 124.427 238.102L124.359 238.588V238.661C124.478 238.809 124.575 238.972 124.648 239.147C124.555 239.252 124.483 239.374 124.437 239.507C124.391 239.639 124.372 239.78 124.381 239.92C124.407 240.239 124.37 240.56 124.271 240.865C124.29 240.843 124.527 240.588 124.758 240.651C124.989 240.714 125.646 240.909 125.646 240.909C125.646 240.909 126.133 240.994 126.092 241.103C126.05 241.213 126.425 241.682 126.425 241.682L127.74 240.44C127.752 240.401 127.766 240.365 127.776 240.326C127.832 240.148 127.87 239.966 127.89 239.781C127.748 239.747 127.608 239.703 127.472 239.648C127.331 239.599 127.206 239.515 127.107 239.405C126.996 239.234 126.924 239.042 126.895 238.841C126.76 238.467 126.598 238.104 126.408 237.755C126.138 237.144 126.047 236.47 126.145 235.81C126.166 235.607 126.235 235.411 126.347 235.239C126.561 234.943 126.951 234.824 127.233 234.588C127.516 234.352 127.701 233.995 128.029 233.818C128.344 233.682 128.694 233.652 129.027 233.733C129.685 233.84 130.316 234.069 130.889 234.408C131.066 234.549 131.287 234.621 131.512 234.612C131.696 234.558 131.854 234.442 131.963 234.284V234.265L131.977 234.248C132.115 234.553 132.184 234.885 132.182 235.22C132.182 235.273 132.182 235.327 132.182 235.378C132.181 235.397 132.181 235.415 132.182 235.434C132.181 235.448 132.181 235.463 132.182 235.478C132.178 235.5 132.178 235.523 132.182 235.546C132.209 235.613 132.252 235.674 132.306 235.723C132.346 235.768 132.381 235.817 132.413 235.869C132.413 235.852 132.401 235.832 132.393 235.815C132.478 235.937 132.526 236.08 132.53 236.228C132.537 236.336 132.502 236.443 132.432 236.525C132.366 236.588 132.294 236.646 132.218 236.697C132.243 236.842 132.256 236.988 132.257 237.135C132.254 237.572 132.139 238 131.922 238.379C131.705 238.759 131.394 239.076 131.018 239.3L130.974 239.412C130.781 239.863 130.698 240.354 130.731 240.843C130.731 240.877 130.731 240.911 130.746 240.948L130.794 241.001C130.794 241.001 132.963 241.023 133.472 240.561C133.981 240.1 134.762 241.689 134.762 241.689C134.762 241.689 135.538 241.84 135.694 241.689C135.85 241.538 136.763 241.667 136.763 241.667C137.136 241.338 137.621 241.164 138.118 241.181C138.422 240.95 138.757 240.765 139.114 240.629V240.629H139.138C139.294 240.573 139.46 240.552 139.625 240.569C139.625 240.569 140.691 239.687 141.003 239.215C141.314 238.744 142.797 236.989 142.804 236.979V236.897L142.821 236.639C142.866 236.643 142.91 236.643 142.955 236.639C142.955 236.615 142.972 236.583 142.984 236.552C143.069 236.301 143.174 236.057 143.298 235.823C143.298 235.823 143.298 235.499 143.206 235.419C143.113 235.339 143.245 234.156 143.245 234.156C143.245 234.156 144.218 231.913 145.068 233.587C145.068 233.587 146.696 234.671 145.328 235.934C145.328 235.934 144.783 236.197 144.705 236.406C144.656 236.542 144.462 236.921 144.345 237.174L144.291 237.286H144.306L144.286 237.497V237.58C144.544 237.725 144.72 237.869 144.676 237.981C144.601 238.167 144.549 238.361 144.52 238.559C144.52 238.559 142.631 240.923 142.388 241.932C142.388 241.932 137.318 244.941 135.65 245.154L135.94 246.659C135.94 246.659 136.028 247.56 136.006 247.874C135.984 248.187 136.205 249.657 136.205 249.657C136.205 249.657 136.495 251.806 136.741 252.107C136.987 252.408 136.94 253.696 136.94 253.696C136.998 254.313 137.11 254.924 137.274 255.521C137.416 256.12 137.438 256.741 137.34 257.349C137.34 257.349 138.184 259.281 136.161 257.971C136.161 257.971 135.168 257.91 134.024 257.871C134.024 257.908 134.024 257.947 134.024 257.985C134.024 258.131 134.024 258.292 134.024 258.459C134.039 259.565 134.046 261.091 133.995 262.245C133.907 264.287 133.284 268.321 133.284 268.321V270.35C133.325 270.541 133.344 270.736 133.343 270.931C133.357 271.646 133.167 272.351 132.795 272.962L132.639 274.316C132.449 274.771 132.324 275.25 132.267 275.74C132.269 275.783 132.274 275.827 132.284 275.869C132.297 275.937 132.303 276.006 132.301 276.075C132.32 276.69 131.95 278.16 131.95 278.16C131.95 278.16 131.929 279.643 131.707 279.73C131.486 279.818 131.95 280.583 132.094 280.807C132.095 280.793 132.095 280.779 132.094 280.766L132.121 280.809C132.167 280.93 132.19 281.057 132.189 281.186C132.202 281.287 132.186 281.389 132.143 281.481C132.1 281.573 132.031 281.651 131.946 281.706C131.522 281.964 131.296 282.177 131.654 282.265C131.786 282.285 131.917 282.312 132.045 282.348C132.053 282.331 132.059 282.314 132.065 282.297C132.115 282.318 132.156 282.354 132.183 282.402C132.209 282.449 132.219 282.503 132.211 282.557C132.208 282.732 132.163 282.905 132.079 283.06C131.922 283.447 131.72 283.815 131.476 284.156L131.305 284.136C131.332 284.201 131.365 284.262 131.405 284.318C131.467 284.411 131.551 284.488 131.649 284.542C131.742 284.597 131.846 284.632 131.953 284.646C132.074 284.65 132.192 284.679 132.301 284.732C132.41 284.785 132.506 284.86 132.583 284.953C132.805 285.237 132.944 285.628 132.505 285.971L130.916 286.518C130.916 286.518 128.18 286.872 128.326 286.26C128.472 285.648 128.57 285.111 128.57 285.111C128.558 284.736 128.634 284.364 128.791 284.024C128.82 283.971 128.852 283.917 128.888 283.864H128.791C128.791 283.864 128.591 282.51 128.324 282.253C128.263 282.192 128.248 282.148 128.263 282.112C128.236 282.039 128.304 281.995 128.394 281.971C128.402 281.988 128.409 282.006 128.414 282.024C128.501 282.006 128.59 281.996 128.679 281.995C128.679 281.995 128.769 281.286 128.479 281.023C128.456 280.993 128.44 280.959 128.43 280.923C128.42 280.887 128.418 280.849 128.424 280.812C128.422 280.715 128.431 280.619 128.453 280.525L128.465 280.54C128.63 279.968 128.843 279.411 129.103 278.875C129.103 278.875 129.125 278.231 128.947 277.973C128.769 277.716 128.969 274.471 128.969 274.471C128.969 274.471 128.903 272.902 129.103 272.173C129.302 271.444 128.859 270.583 128.859 270.583V270.535C128.859 270.535 128.859 270.437 128.886 270.292V270.306C128.93 269.891 129.015 269.14 129.078 268.792C129.166 268.306 129.056 265.934 129.056 265.934L128.689 264.948L127.978 266.688L127.228 269.006C127.01 269.294 126.876 269.636 126.839 269.995C126.839 270.019 126.839 270.044 126.839 270.068C126.839 270.092 126.839 270.175 126.839 270.224C126.847 270.518 126.762 270.807 126.596 271.05C126.596 271.05 126.396 272.146 126.084 272.425C125.885 272.651 125.774 272.941 125.773 273.242C125.773 273.242 125.396 274.831 125.215 275.111C125.067 275.354 125.06 275.993 125.06 276.192C125.06 276.228 125.06 276.25 125.06 276.25C125.06 276.25 125.006 276.819 125.008 277.295C125.008 277.354 125.008 277.412 125.008 277.465V277.453C125.008 277.583 125.024 277.713 125.055 277.84V277.862V277.781C125.133 278.106 125.172 278.439 125.169 278.773C125.169 279.344 125.091 280.019 124.746 280.418C124.144 281.106 123.772 281.018 123.772 281.018C123.772 281.018 124.062 281.879 124.417 282.051C124.43 282.057 124.443 282.066 124.454 282.075C124.455 282.058 124.455 282.041 124.454 282.024C124.492 282.068 124.521 282.119 124.539 282.174C124.557 282.229 124.564 282.287 124.558 282.345C124.542 282.804 124.388 283.247 124.118 283.619C124.033 283.701 123.929 283.761 123.816 283.794L123.872 283.828C123.912 283.849 123.954 283.869 123.996 283.886C124.053 283.91 124.114 283.926 124.176 283.934C124.297 283.937 124.415 283.966 124.524 284.018C124.633 284.071 124.729 284.146 124.806 284.238C125.028 284.525 125.167 284.914 124.729 285.256L123.139 285.806C123.139 285.806 120.442 286.158 120.586 285.548Z" fill="url(#paint5_linear)"/>
<path d="M123.543 236.664L123.704 237.448V237.798V238.056L124.602 238.148L124.702 237.961C124.904 237.568 125.138 237.192 125.4 236.836C125.566 236.698 125.86 234.515 125.505 234.649C125.289 234.733 125.111 234.894 125.006 235.101C125.006 235.101 123.224 235.3 123.543 236.664Z" fill="#FFCDD3"/>
<path opacity="0.1" d="M123.687 238.056L124.585 238.148L124.685 237.961C124.564 237.823 124.4 237.732 124.219 237.702C124.038 237.672 123.852 237.706 123.694 237.798L123.687 238.056Z" fill="black"/>
<path d="M123.46 238.479L124.643 238.753L124.67 238.578L124.736 238.092C124.671 238.007 124.59 237.934 124.497 237.88C124.405 237.825 124.302 237.79 124.195 237.776C124.089 237.761 123.98 237.768 123.876 237.796C123.772 237.823 123.675 237.871 123.589 237.937L123.531 238.18L123.46 238.479Z" fill="#DCE6F2"/>
<path d="M142.641 236.751L143.904 237.427C143.904 237.427 143.95 237.327 144.019 237.184C144.138 236.941 144.318 236.554 144.367 236.418C144.442 236.209 144.968 235.932 144.968 235.932C146.292 234.671 144.725 233.587 144.725 233.587C143.892 231.91 142.962 234.156 142.962 234.156C142.962 234.156 142.831 235.337 142.923 235.417C143.016 235.497 143.013 235.82 143.013 235.82C142.893 236.055 142.791 236.299 142.709 236.549C142.66 236.676 142.641 236.751 142.641 236.751Z" fill="#FFCDD3"/>
<path opacity="0.1" d="M142.641 236.751L143.904 237.427C143.904 237.427 143.95 237.327 144.019 237.184C143.839 237.035 143.208 236.523 142.999 236.547C142.899 236.556 142.799 236.556 142.699 236.547C142.66 236.676 142.641 236.751 142.641 236.751Z" fill="black"/>
<path d="M142.509 237.133L143.931 237.83L143.96 237.526L143.98 237.315C143.98 237.315 143.157 236.61 142.914 236.637C142.791 236.654 142.666 236.654 142.544 236.637L142.527 236.88L142.509 237.133Z" fill="#DCE6F2"/>
<path d="M126.985 241.874C126.985 241.874 133.177 242.571 132.021 242.197C131.215 241.934 130.894 241.424 130.828 240.856C130.794 240.367 130.873 239.878 131.057 239.424C131.204 239.035 131.39 238.661 131.612 238.309C131.612 238.309 126.878 235.708 127.825 238.066C127.971 238.422 128.061 238.799 128.092 239.184C128.122 239.566 128.081 239.951 127.971 240.318C127.793 240.918 127.452 241.457 126.985 241.874V241.874Z" fill="#FFCDD3"/>
<path opacity="0.1" d="M127.825 238.073C127.971 238.43 128.061 238.807 128.092 239.191C128.538 239.565 129.027 239.541 129.655 239.541C130.142 239.541 130.673 239.657 131.057 239.424C131.204 239.035 131.39 238.661 131.612 238.309C131.612 238.309 126.878 235.708 127.825 238.073Z" fill="black"/>
<path d="M129.74 239.704C131.154 239.704 132.301 238.559 132.301 237.147C132.301 235.735 131.154 234.591 129.74 234.591C128.326 234.591 127.18 235.735 127.18 237.147C127.18 238.559 128.326 239.704 129.74 239.704Z" fill="#FFCDD3"/>
<path opacity="0.1" d="M126.985 241.874C126.985 241.874 133.177 242.571 132.021 242.197C131.215 241.934 130.894 241.424 130.828 240.855C130.519 240.522 129.899 240.282 129.502 240.153C129.138 240.032 128.747 240.026 128.38 240.136C128.235 240.18 128.097 240.243 127.971 240.326C127.792 240.923 127.451 241.458 126.985 241.874V241.874Z" fill="black"/>
<path opacity="0.1" d="M123.46 238.479L124.643 238.753L124.67 238.578C124.544 238.404 124.366 238.273 124.162 238.204C123.958 238.134 123.738 238.129 123.531 238.19L123.46 238.479Z" fill="black"/>
<path opacity="0.1" d="M142.509 237.132L143.931 237.83L143.96 237.526C143.499 237.28 143.019 237.068 142.527 236.892L142.509 237.132Z" fill="black"/>
<path d="M122.144 256.892C122.144 256.892 130.04 258.246 130.889 257.988C131.739 257.73 136.086 258.007 136.086 258.007C138.045 259.32 137.228 257.385 137.228 257.385C137.324 256.778 137.301 256.159 137.162 255.56C137.004 254.961 136.897 254.35 136.841 253.733C136.841 253.733 136.884 252.445 136.646 252.143C136.407 251.842 136.13 249.694 136.13 249.694C136.13 249.694 135.916 248.236 135.937 247.91C135.959 247.585 135.872 246.695 135.872 246.695L135.592 245.191C137.206 244.975 142.113 241.968 142.113 241.968C142.356 240.958 144.177 238.595 144.177 238.595C144.203 238.396 144.254 238.201 144.328 238.015C144.457 237.672 142.522 236.984 142.522 236.984C142.522 236.984 141.078 238.746 140.779 239.218C140.479 239.689 139.445 240.571 139.445 240.571C139.28 240.553 139.113 240.574 138.958 240.632H138.934C138.584 240.767 138.256 240.953 137.96 241.184C137.476 241.17 137.006 241.345 136.648 241.67C136.648 241.67 135.767 241.541 135.616 241.691C135.465 241.842 134.713 241.691 134.713 241.691C134.713 241.691 133.959 240.1 133.464 240.561C132.97 241.023 130.879 241.016 130.879 241.016C130.6 240.644 129.918 240.377 129.492 240.241C129.129 240.119 128.737 240.112 128.37 240.221C128.211 240.266 128.061 240.339 127.927 240.435L126.651 241.682C126.651 241.682 126.286 241.196 126.33 241.101C126.374 241.006 125.899 240.906 125.899 240.906C125.899 240.906 125.276 240.715 125.038 240.649C124.799 240.583 124.585 240.841 124.565 240.863C124.661 240.558 124.698 240.238 124.673 239.92C124.654 239.639 124.747 239.361 124.931 239.147C124.178 237.298 122.477 238.846 122.477 238.846C122.477 238.846 122.285 239.854 122.455 240.241C122.626 240.627 122.285 241.456 122.326 241.66C122.368 241.864 122.241 242.241 122.241 242.649C122.286 243.17 122.403 243.683 122.587 244.173C122.716 244.518 123.748 245.29 123.748 245.29C123.748 245.29 123.811 246.506 124.264 247.235C124.716 247.964 124.436 250.369 124.436 250.369C124.436 250.369 124.006 252.26 123.463 252.863C122.92 253.465 122.144 256.892 122.144 256.892Z" fill="#3F3D56"/>
<path d="M130.432 239.465C130.411 239.602 130.34 239.725 130.232 239.811C130.157 239.848 130.073 239.866 129.989 239.864C129.207 239.913 128.394 239.947 127.671 239.648C127.537 239.596 127.417 239.512 127.321 239.405C127.213 239.233 127.143 239.04 127.116 238.838C126.985 238.466 126.827 238.103 126.644 237.752C126.383 237.14 126.294 236.467 126.389 235.808C126.41 235.605 126.478 235.41 126.586 235.237C126.793 234.943 127.17 234.824 127.443 234.588C127.715 234.352 127.893 233.993 128.214 233.818C128.519 233.679 128.863 233.649 129.188 233.733C129.827 233.84 130.439 234.07 130.991 234.408C131.162 234.546 131.376 234.619 131.595 234.612C131.777 234.553 131.934 234.433 132.038 234.272C132.191 234.623 132.256 235.006 132.228 235.388C132.218 235.443 132.218 235.5 132.228 235.555C132.254 235.623 132.295 235.683 132.347 235.733C132.54 235.956 132.659 236.309 132.469 236.535C132.386 236.632 132.26 236.685 132.179 236.778C132.033 236.958 132.082 237.218 132.087 237.446C132.094 237.526 132.074 237.606 132.028 237.672C131.987 237.711 131.937 237.739 131.882 237.752C131.826 237.765 131.769 237.764 131.714 237.747C131.605 237.715 131.49 237.705 131.376 237.716C131.256 237.756 131.153 237.836 131.084 237.942C130.762 238.398 130.54 238.917 130.432 239.465V239.465Z" fill="#2D293D"/>
<path opacity="0.1" d="M130.879 241.016C130.879 241.016 127.679 241.439 127.391 240.958Z" fill="black"/>
<path d="M31.2114 281.21C31.3831 281.593 31.6743 281.91 32.0414 282.114C32.4071 282.319 32.7541 282.556 33.0783 282.821C33.4531 283.176 33.6965 283.667 34.1371 283.939C34.3048 284.037 34.4849 284.111 34.6726 284.16C34.8875 284.227 35.1085 284.272 35.3322 284.294C35.9134 284.304 36.4913 284.205 37.0361 284.003C37.2184 283.959 37.3915 283.883 37.5473 283.779C37.618 283.723 37.6832 283.66 37.742 283.592C37.8628 283.473 37.9544 283.329 38.0097 283.169C38.0347 283.084 38.026 282.993 37.9854 282.914C37.9322 282.827 37.8576 282.756 37.7688 282.707C37.6136 282.605 37.4508 282.515 37.2819 282.438C37.0541 282.356 36.8393 282.243 36.6442 282.1C36.5176 281.98 36.4129 281.84 36.3351 281.684C36.1869 281.419 36.0693 281.138 35.9846 280.846C35.941 280.649 35.8757 280.457 35.7899 280.275C35.6852 280.083 35.5172 279.917 35.4053 279.73C35.4637 279.73 35.5245 279.73 35.583 279.706C35.5971 279.407 35.5298 279.11 35.3882 278.846C35.6316 278.865 35.746 278.547 35.7071 278.311C35.6682 278.075 35.5537 277.825 35.656 277.611C35.7299 277.492 35.8228 277.385 35.931 277.295C36.318 276.887 36.3059 276.265 36.4665 275.73C36.5693 275.427 36.7039 275.135 36.8682 274.86C37.3331 274.022 37.5473 272.972 38.297 272.367L38.9712 271.823C39.0173 271.792 39.0536 271.749 39.0759 271.699C39.1148 271.594 39.032 271.485 39.0369 271.373C39.0491 271.176 39.3168 271.096 39.4069 270.919C39.4399 270.832 39.462 270.741 39.4726 270.649C39.5432 270.34 39.845 270.148 40.0617 269.92C40.2252 269.744 40.3485 269.535 40.4229 269.306C40.4973 269.078 40.521 268.836 40.4925 268.598C40.4666 268.48 40.46 268.358 40.473 268.238C40.4985 268.155 40.5302 268.074 40.5679 267.995C40.6425 267.74 40.6697 267.473 40.6483 267.208C40.6618 266.787 40.7131 266.368 40.8016 265.956L44.1266 265.203C44.1485 265.227 44.1679 265.252 44.1923 265.276C44.4868 265.575 44.6329 266.005 44.9225 266.316L45.3022 266.734C45.3752 266.814 45.4507 266.921 45.4069 267.018C45.3631 267.116 45.3071 267.118 45.2608 267.171C45.2325 267.211 45.2159 267.258 45.2129 267.307C45.21 267.355 45.2208 267.404 45.2442 267.447C45.2675 267.489 45.3025 267.525 45.345 267.549C45.3876 267.573 45.436 267.584 45.4848 267.582C45.4424 267.646 45.4153 267.719 45.4057 267.795C45.3961 267.872 45.4042 267.949 45.4294 268.022C45.4546 268.094 45.4962 268.16 45.551 268.214C45.6057 268.268 45.6722 268.309 45.7452 268.333C45.6709 268.485 45.5777 268.627 45.4677 268.756C45.5151 268.817 45.5408 268.892 45.5408 268.97C45.5278 269.016 45.5115 269.062 45.4921 269.106C45.4731 269.208 45.4823 269.314 45.5189 269.412C45.7282 270.192 45.7282 271.013 45.5189 271.794C45.4845 271.9 45.4632 272.01 45.4556 272.122C45.4561 272.215 45.4701 272.307 45.497 272.396C45.6089 272.797 45.8329 273.218 45.6771 273.611C45.6274 273.703 45.5835 273.798 45.5456 273.896C45.458 274.187 45.66 274.474 45.7696 274.758C45.8907 275.151 45.9272 275.565 45.8767 275.973C45.8499 276.537 45.8207 277.098 45.7939 277.66C45.7809 277.762 45.7917 277.866 45.8256 277.964C45.8602 278.029 45.9086 278.087 45.9674 278.132C46.0262 278.177 46.094 278.209 46.1663 278.226C46.1322 278.34 46.0982 278.455 46.0592 278.566C46.0422 278.537 46.0181 278.512 45.989 278.495C45.9599 278.477 45.9268 278.467 45.8928 278.466C45.8589 278.464 45.8251 278.471 45.7946 278.486C45.7641 278.501 45.7379 278.524 45.7185 278.552C45.6915 278.601 45.6765 278.656 45.6746 278.712C45.68 279.117 45.7464 279.52 45.8718 279.905C45.8884 279.967 45.8942 280.031 45.8888 280.095C45.8724 280.161 45.8504 280.225 45.8231 280.287C45.8168 280.303 45.8119 280.319 45.8085 280.335C45.778 280.53 45.7964 280.728 45.8621 280.914C45.8797 281.033 45.9392 281.143 46.03 281.222C46.0966 281.262 46.1717 281.286 46.2491 281.29C47.4126 281.424 48.5468 280.668 49.7103 280.804C49.9537 280.831 50.1826 280.894 50.4211 280.919C50.7017 280.937 50.9834 280.923 51.2608 280.877C51.6503 280.826 52.0373 280.761 52.4195 280.685C52.7133 280.64 52.9982 280.549 53.2641 280.416C53.3962 280.349 53.5128 280.256 53.6064 280.142C53.6999 280.027 53.7682 279.895 53.8069 279.752C53.8404 279.626 53.823 279.492 53.7582 279.378C53.7316 279.339 53.6987 279.304 53.6608 279.276C53.5686 279.212 53.4667 279.164 53.359 279.133L52.9087 278.97C52.6932 278.883 52.4674 278.824 52.2369 278.795C52.069 278.78 51.8961 278.795 51.7282 278.795C51.1343 278.763 50.6109 278.423 50.1217 278.097L49.4548 277.655C49.3939 277.601 49.3187 277.565 49.2381 277.551C49.1575 277.538 49.0748 277.548 48.9996 277.58L48.9071 277.614L49.3185 277.385C49.3379 275.383 49.3331 273.381 49.3038 271.38C49.3155 270.883 49.2681 270.386 49.1627 269.9C49.0896 269.623 49.0118 269.261 49.2552 269.106C49.3185 268.89 49.1894 268.673 49.131 268.459C49.0726 268.246 49.1554 267.937 49.3744 267.934C49.1505 267.541 49.1578 267.064 49.1481 266.612C49.1481 266.241 49.1189 265.883 49.075 265.502C49.0442 265.043 48.9129 264.597 48.6905 264.194L51.9716 263.451L51.8645 262.977L52.3513 262.868L49.7079 251.249C49.7652 251.228 49.815 251.191 49.851 251.141C49.8869 251.092 49.9074 251.033 49.9099 250.972C49.8978 250.858 49.7858 250.753 49.8223 250.644C49.8442 250.578 49.9099 250.542 49.9513 250.486C49.99 250.419 50.0068 250.341 49.9994 250.263C49.992 250.186 49.9607 250.113 49.9099 250.054C49.8838 250.024 49.8676 249.986 49.8637 249.947C49.867 249.92 49.8752 249.895 49.888 249.871C49.9395 249.757 49.9514 249.628 49.9219 249.506C49.8924 249.383 49.8231 249.274 49.7249 249.196C49.6977 249.172 49.6652 249.155 49.63 249.147C49.5521 249.147 49.484 249.171 49.4061 249.147C49.3282 249.123 49.3258 249.079 49.2381 249.072H49.2114L48.2109 244.676C48.2861 244.463 48.3447 244.246 48.3862 244.024C48.4669 243.63 48.4305 243.22 48.2815 242.846C48.4955 242.731 48.6908 242.584 48.8608 242.411C48.9206 242.362 48.9613 242.294 48.9755 242.218C48.9898 242.143 48.9767 242.065 48.9387 241.998C48.7475 241.471 48.4097 241.01 47.9651 240.668C47.8264 240.564 47.4978 240.287 47.2957 240.348C47.346 240.275 47.3996 240.204 47.4564 240.136C47.5782 240.016 47.6852 239.883 47.7752 239.738C48.3793 239.489 48.8765 239.037 49.1796 238.459C49.4827 237.881 49.5724 237.216 49.4329 236.578C49.4249 236.54 49.4143 236.503 49.4012 236.467C49.47 236.474 49.5395 236.466 49.6046 236.442C49.6696 236.419 49.7282 236.38 49.7761 236.331C49.8256 236.261 49.8558 236.179 49.8635 236.093C49.8712 236.008 49.8561 235.922 49.8199 235.845C49.7483 235.694 49.667 235.548 49.5765 235.407C49.3939 235.077 49.4377 234.649 49.2503 234.34C49.0637 234.068 48.8401 233.822 48.5858 233.611C48.3385 233.418 48.0514 233.281 47.7451 233.211C47.4387 233.142 47.1207 233.14 46.8138 233.208C46.1978 233.346 45.6252 233.633 45.1464 234.044C45.0054 234.171 44.8483 234.28 44.6791 234.367C44.4016 234.493 44.0608 234.489 43.8296 234.685C43.5229 234.945 43.5619 235.414 43.6787 235.803C43.7955 236.192 43.9684 236.588 43.8345 236.967C43.7812 237.078 43.7365 237.192 43.7006 237.31C43.6826 237.532 43.74 237.754 43.8637 237.939C43.8943 237.896 43.9204 237.85 43.9416 237.801C43.9427 237.806 43.9427 237.811 43.9416 237.815C43.9586 237.879 43.9781 237.942 43.9951 238.005C43.9674 238.005 43.94 238.01 43.9148 238.022C43.8004 238.073 43.7493 238.207 43.6544 238.289C43.5594 238.372 43.3233 238.425 43.2771 238.578C43.2552 238.651 43.2771 238.732 43.2503 238.802C43.1919 238.941 42.9874 238.941 42.8803 239.045C42.8423 239.087 42.8165 239.139 42.8058 239.195C42.7951 239.25 42.7998 239.308 42.8195 239.361C42.8391 239.42 42.867 239.475 42.9022 239.526C42.8874 239.597 42.895 239.671 42.9241 239.738L41.5659 240.066C41.3488 240.111 41.1373 240.18 40.9355 240.272C40.7329 240.366 40.5688 240.526 40.4706 240.727C40.4706 240.751 40.4462 240.783 40.4195 240.792C40.3973 240.8 40.3735 240.8 40.3513 240.792C40.1186 240.734 39.8739 240.746 39.6479 240.826C38.9305 241.075 38.3041 241.532 37.8491 242.139C37.7592 242.233 37.6991 242.351 37.6763 242.479C37.6641 242.625 37.7444 242.787 37.6763 242.914L37.6057 242.943C37.4064 243.006 37.2133 243.088 37.0288 243.186C36.8316 243.303 36.6588 243.456 36.4738 243.592C35.7168 244.146 34.7164 244.42 34.1809 245.186C34.0057 245.429 33.8791 245.742 33.6114 245.898C33.4863 245.954 33.3644 246.016 33.2462 246.085C33.0223 246.258 33.0028 246.557 32.9517 246.841L28.1688 247.927L28.2759 248.399L27.789 248.508L32.2093 267.927L36.2888 267.004C36.2909 267.096 36.3039 267.189 36.3278 267.278C36.3712 267.562 36.466 267.835 36.6077 268.085C36.5161 268.115 36.436 268.172 36.3785 268.249C36.3209 268.326 36.2888 268.419 36.2864 268.515C36.2645 268.702 36.2986 268.897 36.2596 269.081C36.1866 269.412 35.8994 269.648 35.6608 269.893C34.5752 271.006 34.3464 272.649 33.7915 274.088C33.531 274.758 33.1927 275.402 33.0223 276.097C32.8276 276.887 32.8154 277.798 32.1923 278.345C32.132 278.387 32.0834 278.444 32.0511 278.51C32.0365 278.56 32.0365 278.612 32.0511 278.661C32.0887 278.805 32.1694 278.934 32.2823 279.03L32.2531 279.086C32.229 279.082 32.2043 279.082 32.1801 279.086C32.0535 279.086 31.983 279.247 31.9367 279.344C31.7547 279.683 31.6453 280.056 31.6154 280.44C31.58 280.434 31.5438 280.434 31.5083 280.44C31.4357 280.455 31.3678 280.487 31.3105 280.534C31.2532 280.581 31.2083 280.641 31.1797 280.71C31.1306 280.875 31.1418 281.052 31.2114 281.21V281.21ZM47.0645 240.899H47.0158C47.0541 240.785 47.1021 240.675 47.1594 240.569C47.1185 240.676 47.0867 240.787 47.0645 240.899V240.899ZM34.0422 279.716C34.02 279.799 33.9713 279.873 33.9034 279.927H33.8913C33.8977 279.901 33.9058 279.875 33.9156 279.849L33.9692 279.696L34.0422 279.716Z" fill="url(#paint6_linear)"/>
<path d="M47.0864 240.161C46.8523 240.438 46.6813 240.763 46.585 241.113C46.4974 241.463 46.1274 244.105 46.2613 244.44C45.8913 244.197 44.6888 244.425 44.314 244.197C44.1582 244.1 43.3404 243.621 43.1943 243.497C43.0483 243.373 42.2207 243.232 42.1039 243.101C41.6633 242.615 43.7079 239.925 43.26 239.456C43.2474 239.447 43.2367 239.436 43.2287 239.424C43.2207 239.411 43.2156 239.396 43.2137 239.381C43.2119 239.366 43.2133 239.351 43.218 239.337C43.2226 239.322 43.2303 239.309 43.2406 239.298C43.4207 239.054 43.6281 238.831 43.8588 238.634C44.0893 238.432 44.2345 238.15 44.2653 237.845C44.528 237.9 44.7797 237.999 45.0101 238.136C45.5635 238.425 46.1111 238.726 46.6531 239.04C46.8649 239.162 47.2519 239.3 47.3834 239.512C47.5148 239.723 47.2251 239.993 47.0864 240.161Z" fill="#A1616A"/>
<path d="M42.7951 240.197C43.2421 240.368 43.6716 240.581 44.0779 240.834C44.4802 241.046 44.8081 241.376 45.0174 241.779C45.088 241.942 45.1245 242.117 45.1878 242.282C45.4701 243.011 46.2442 243.405 46.6896 244.039C46.822 244.236 46.9345 244.446 47.0255 244.666C47.2031 245.08 47.3464 245.509 47.4539 245.947C47.5586 246.372 47.2105 246.761 47.1424 247.193C47.1046 247.617 47.1046 248.043 47.1424 248.467C47.15 249.272 47.0931 250.076 46.972 250.872C46.7626 252.554 45.9131 257.269 45.7038 258.953C43.8758 258.911 39.0515 258.953 37.3136 258.396C36.7318 258.209 39.991 253.862 39.4044 253.75C39.373 253.752 39.3416 253.746 39.3125 253.735C39.2833 253.723 39.2573 253.704 39.2362 253.681C39.2152 253.658 39.1997 253.63 39.1909 253.6C39.1821 253.569 39.1802 253.538 39.1854 253.507C39.1854 250.999 40.4486 248.646 40.6945 246.16C40.7821 245.295 41.1083 244.498 41.3006 243.65C41.4734 242.882 41.4758 242.075 41.7241 241.327C41.7681 241.174 41.8381 241.03 41.931 240.902C42.0122 240.803 42.1045 240.714 42.206 240.637C42.4056 240.469 42.6004 240.348 42.7951 240.197Z" fill="#D7D9E1"/>
<path d="M46.3196 239.985C47.8508 239.985 49.0921 238.746 49.0921 237.218C49.0921 235.689 47.8508 234.45 46.3196 234.45C44.7885 234.45 43.5472 235.689 43.5472 237.218C43.5472 238.746 44.7885 239.985 46.3196 239.985Z" fill="#A1616A"/>
<path d="M43.8588 239.111C43.6956 239.017 43.5079 238.975 43.3202 238.99C43.1326 239.004 42.9538 239.075 42.8073 239.193C42.7217 239.255 42.6575 239.342 42.6235 239.441C42.5895 239.541 42.5874 239.649 42.6174 239.75L41.2811 240.075C41.0661 240.117 40.8569 240.185 40.658 240.277C40.4586 240.371 40.2979 240.531 40.2028 240.729C40.1906 240.756 40.1785 240.785 40.1517 240.795C40.1249 240.804 40.1079 240.795 40.086 240.795C39.8559 240.736 39.6136 240.747 39.3898 240.826C38.682 241.073 38.0658 241.528 37.6227 242.131C37.5336 242.224 37.4742 242.342 37.4523 242.469C37.4523 242.632 37.5424 242.814 37.4523 242.955C37.7395 244.211 37.574 245.482 37.5643 246.773C37.5241 247.014 37.431 247.244 37.2917 247.446C37.155 247.677 37.0579 247.929 37.0044 248.192C36.9046 248.882 37.4109 249.55 37.3184 250.243C37.2564 250.532 37.1566 250.811 37.0215 251.074C36.8683 251.392 36.8067 251.746 36.8438 252.097C36.8681 252.253 36.9241 252.403 36.9533 252.559C36.9854 252.768 36.9944 252.98 36.9801 253.191C36.9801 253.582 36.9484 253.973 36.9241 254.365C36.8876 254.996 36.8048 255.689 36.3448 256.126C37.6811 256.053 39.0856 255.959 40.2101 255.232C40.3681 255.135 40.5123 255.018 40.6385 254.882C41.0109 254.467 41.101 253.878 41.174 253.327C41.2881 252.711 41.3127 252.083 41.247 251.46C41.2019 251.266 41.1855 251.067 41.1983 250.868C41.247 250.508 41.5318 250.233 41.7947 249.981C42.0922 249.716 42.3461 249.406 42.5468 249.062C42.6453 248.889 42.7074 248.698 42.7291 248.5C42.7509 248.303 42.7319 248.103 42.6734 247.913C42.6077 247.728 42.4933 247.565 42.43 247.375C42.397 247.284 42.3941 247.184 42.4216 247.09C42.4492 246.997 42.5058 246.915 42.5833 246.855C43.4572 246.369 43.6519 245.154 43.6422 244.148C43.6203 243.635 43.5469 243.125 43.4231 242.627L43.2162 241.655C43.3181 241.508 43.3891 241.342 43.4251 241.167C43.4611 240.992 43.4612 240.812 43.4255 240.637C43.3903 240.537 43.369 240.433 43.3622 240.328C43.3785 240.194 43.4269 240.065 43.5034 239.954C43.664 239.692 43.7839 239.408 43.8588 239.111V239.111Z" fill="#3F3D56"/>
<path d="M47.4418 241.543C47.5039 241.848 47.5852 242.148 47.6852 242.442C47.7363 242.552 47.8069 242.649 47.8653 242.753C48.0644 243.156 48.1227 243.614 48.0308 244.054C47.9394 244.489 47.8074 244.914 47.6365 245.325C47.5779 245.465 47.5378 245.612 47.5172 245.762C47.5067 245.916 47.5132 246.071 47.5367 246.224C47.6092 246.842 47.6393 247.465 47.6268 248.088C47.6457 248.63 47.5417 249.17 47.3225 249.667C47.2831 249.774 47.2037 249.861 47.101 249.91C47.025 249.929 46.9457 249.929 46.8698 249.91L46.1201 249.803C46.0573 249.8 45.9959 249.783 45.9399 249.755C45.8605 249.695 45.8045 249.609 45.7817 249.512C45.6389 248.956 45.6157 248.376 45.7136 247.811C45.9107 246.092 46.3075 244.391 46.3002 242.664C46.3002 242.178 46.1907 241.468 46.4438 241.028C46.546 240.846 46.5144 240.921 46.6872 240.962C46.7787 240.98 46.869 241.003 46.9574 241.033C47.0711 241.077 47.1736 241.145 47.2574 241.233C47.3412 241.322 47.4042 241.428 47.4418 241.543Z" fill="#3F3D56"/>
<path d="M46.0446 245.033C46.0803 246.047 46.1136 247.06 46.1444 248.073L43.299 247.978C43.2521 247.693 43.2695 247.401 43.3501 247.123C43.4572 246.455 43.3063 245.772 43.3501 245.096C43.3915 244.581 43.5521 244.083 43.5935 243.568C43.6105 243.269 43.5935 242.967 43.5935 242.666C43.6158 242.368 43.6589 242.071 43.7225 241.779C43.7869 241.362 43.9004 240.954 44.0608 240.564C44.4333 240.615 44.8349 240.678 45.1002 240.945C45.2412 241.098 45.3431 241.282 45.3972 241.482C45.5821 242.075 45.5018 242.729 45.7087 243.31C45.914 243.862 46.0274 244.444 46.0446 245.033V245.033Z" fill="#6C63FF"/>
<path d="M45.6868 258.705C45.6673 259.312 46.0227 259.859 46.3294 260.384C46.7917 261.175 47.1741 262.009 47.4709 262.875C47.5326 263.099 47.6287 263.312 47.7557 263.507C47.8969 263.668 48.0464 263.821 48.2036 263.966C48.5833 264.382 48.7075 264.965 48.7732 265.524C48.817 265.893 48.8413 266.253 48.8486 266.634C48.8608 267.086 48.8486 267.565 49.0774 267.959C48.8535 267.959 48.7707 268.265 48.834 268.481C48.8973 268.698 49.0215 268.914 48.9606 269.13C48.7172 269.283 48.8 269.645 48.8705 269.925C48.9765 270.411 49.0256 270.907 49.0166 271.405C49.0523 273.406 49.0636 275.406 49.0507 277.407C48.1501 277.925 47.1034 278.493 46.0762 278.289C45.9803 278.28 45.888 278.248 45.8068 278.196C45.7256 278.144 45.6578 278.073 45.6089 277.99C45.5752 277.894 45.5644 277.791 45.5772 277.689L45.6527 276.003C45.7005 275.594 45.6632 275.181 45.5432 274.787C45.4336 274.503 45.234 274.216 45.3192 273.925C45.3484 273.825 45.4093 273.738 45.4482 273.64C45.6016 273.254 45.3776 272.834 45.2681 272.425C45.2394 272.336 45.2246 272.242 45.2243 272.148C45.2323 272.037 45.2527 271.927 45.2852 271.82C45.4881 271.039 45.4839 270.218 45.273 269.439C45.2365 269.342 45.2273 269.237 45.2462 269.135C45.266 269.09 45.2815 269.044 45.2925 268.996C45.2932 268.919 45.2675 268.844 45.2194 268.783C45.3283 268.654 45.4207 268.513 45.4945 268.362C45.4221 268.337 45.3562 268.296 45.302 268.242C45.2478 268.188 45.2067 268.122 45.1816 268.05C45.1565 267.978 45.1482 267.901 45.1573 267.825C45.1664 267.749 45.1926 267.676 45.234 267.611C45.1855 267.612 45.1378 267.599 45.0959 267.575C45.054 267.551 45.0197 267.515 44.9966 267.472C44.9735 267.43 44.9626 267.382 44.965 267.333C44.9673 267.285 44.9829 267.238 45.0101 267.198C45.0588 267.145 45.1269 267.111 45.1561 267.045C45.1854 266.979 45.1221 266.841 45.0515 266.763L44.6766 266.35C44.3967 266.037 44.2507 265.606 43.9586 265.305C43.5525 264.862 43.1936 264.378 42.8876 263.862L41.6462 261.917L41.23 262.484C41.0864 262.654 40.9788 262.852 40.9135 263.064C40.8843 263.267 40.8843 263.472 40.9135 263.674C40.9866 264.868 40.4876 266.032 40.4754 267.225C40.4987 267.491 40.4731 267.758 40.4 268.015C40.3619 268.093 40.331 268.174 40.3075 268.258C40.2946 268.378 40.3012 268.499 40.3269 268.617C40.3569 268.854 40.3349 269.095 40.2627 269.323C40.1904 269.551 40.0695 269.76 39.9083 269.937C39.6941 270.18 39.3971 270.362 39.329 270.666C39.318 270.758 39.2967 270.848 39.2657 270.936C39.1756 271.113 38.9152 271.191 38.903 271.388C38.903 271.499 38.9809 271.611 38.9419 271.716C38.9189 271.765 38.8827 271.807 38.8373 271.837L38.1776 272.379C37.4474 272.984 37.2308 274.032 36.7756 274.87C36.6141 275.143 36.4827 275.434 36.3837 275.735C36.2255 276.27 36.2401 276.892 35.8604 277.3C35.7537 277.389 35.6625 277.495 35.5902 277.614C35.4904 277.83 35.6024 278.078 35.6413 278.314C35.6803 278.549 35.5683 278.868 35.3298 278.848C35.4713 279.112 35.5386 279.409 35.5245 279.708C34.5394 279.879 33.5253 279.715 32.645 279.242C32.5084 279.185 32.385 279.1 32.2828 278.993C32.1806 278.886 32.1017 278.759 32.0511 278.62C32.0365 278.571 32.0365 278.518 32.0511 278.469C32.0825 278.403 32.1303 278.346 32.1898 278.304C32.8008 277.769 32.8129 276.846 33.0004 276.061C33.1659 275.366 33.4872 274.722 33.7501 274.054C34.2953 272.615 34.5144 270.975 35.5805 269.866C35.8239 269.623 36.0965 269.38 36.1671 269.057C36.206 268.87 36.1671 268.678 36.1939 268.489C36.1951 268.394 36.2261 268.301 36.2824 268.225C36.3386 268.148 36.4175 268.091 36.5079 268.061C36.3672 267.811 36.2724 267.537 36.228 267.254C36.1945 267.134 36.1813 267.009 36.189 266.885C36.2087 266.75 36.243 266.618 36.2912 266.491C36.4947 265.861 36.5141 265.187 36.3472 264.547C36.2287 264.229 36.1637 263.894 36.1549 263.555C36.1695 263.383 36.2231 263.22 36.2499 263.05C36.2783 262.752 36.2602 262.451 36.1963 262.158L36.0162 261.045C35.9426 260.677 35.9075 260.302 35.9115 259.927C35.948 259.023 35.359 255.405 36.0551 254.824C36.7513 254.243 38.7156 256.685 39.6113 256.54C40.0063 256.467 40.41 256.454 40.8089 256.501C41.4402 256.623 42.046 256.851 42.6004 257.176L44.533 258.17C44.8981 258.388 45.2847 258.567 45.6868 258.705Z" fill="#65617D"/>
<path d="M48.1769 233.643C47.9343 233.449 47.6517 233.312 47.3494 233.241C47.0471 233.17 46.7328 233.167 46.4292 233.232C45.822 233.37 45.2584 233.655 44.7886 234.063C44.6497 234.19 44.4951 234.299 44.3286 234.386C44.0535 234.51 43.7201 234.506 43.4913 234.7C43.1895 234.96 43.2284 235.429 43.3477 235.818C43.4669 236.207 43.6325 236.605 43.5034 236.982C43.4529 237.093 43.409 237.208 43.372 237.324C43.3549 237.547 43.4123 237.769 43.5351 237.956C43.6258 237.799 43.7071 237.637 43.7785 237.47C43.8686 237.312 44.0536 237.174 44.2239 237.227C44.3943 237.281 44.4333 237.47 44.4673 237.636C44.5014 237.801 44.5988 237.981 44.7643 237.998C44.831 237.997 44.8961 237.977 44.9511 237.939C45.0062 237.901 45.0488 237.848 45.0734 237.786C45.2633 237.41 45.0418 236.921 45.2268 236.542C45.3339 236.323 45.5578 236.18 45.6527 235.956C45.7258 235.781 45.7087 235.582 45.7647 235.4C45.8207 235.218 46.0081 235.047 46.1858 235.128C46.2456 235.164 46.299 235.21 46.344 235.264C46.465 235.371 46.6185 235.436 46.7802 235.447C46.942 235.458 47.1028 235.415 47.2373 235.324C47.3336 235.228 47.4435 235.146 47.5635 235.081C47.6451 235.058 47.7318 235.057 47.8136 235.081C47.8954 235.104 47.969 235.15 48.026 235.213C48.1394 235.34 48.2145 235.497 48.2426 235.665C48.2556 235.896 48.3407 236.118 48.486 236.299C48.5584 236.356 48.641 236.399 48.7294 236.425C48.8331 236.478 48.9501 236.498 49.0654 236.484C49.1807 236.47 49.2892 236.421 49.3769 236.345C49.4261 236.275 49.4558 236.193 49.4631 236.108C49.4703 236.022 49.4549 235.937 49.4182 235.859C49.3472 235.708 49.2659 235.562 49.1748 235.422C48.9923 235.089 49.0337 234.661 48.8487 234.352C48.658 234.087 48.432 233.848 48.1769 233.643Z" fill="#3F3D56"/>
<path d="M48.5614 242.027C48.5954 242.103 48.6056 242.188 48.5906 242.27C48.5696 242.331 48.5336 242.386 48.486 242.43C48.1555 242.757 47.7503 242.998 47.3054 243.132C47.2441 243.147 47.1873 243.176 47.1399 243.218C47.1013 243.272 47.0805 243.337 47.0805 243.403C47.0805 243.47 47.1013 243.535 47.1399 243.589C47.2202 243.695 47.2767 243.817 47.3054 243.947C47.3274 244.19 47.062 244.365 46.8357 244.45C46.5164 244.593 46.1532 244.604 45.8255 244.481C45.6084 244.359 45.4252 244.184 45.2925 243.973C44.2921 242.617 43.6835 241.006 42.6758 239.655C42.6039 239.567 42.5464 239.469 42.5055 239.363C42.4865 239.31 42.4819 239.253 42.4922 239.198C42.5025 239.142 42.5272 239.09 42.5639 239.047C42.671 238.943 42.873 238.943 42.929 238.804C42.9558 238.736 42.929 238.654 42.9533 238.583C42.9996 238.428 43.1967 238.399 43.3257 238.294C43.4547 238.19 43.4693 238.078 43.5691 238.029C43.6274 238.013 43.6886 238.01 43.7482 238.021C43.8077 238.031 43.8639 238.056 43.9123 238.092C44.3992 238.367 44.7083 238.836 45.0345 239.273C45.5379 239.942 46.0903 240.572 46.6872 241.159C46.619 241.091 46.7773 240.416 46.8892 240.367C47.084 240.277 47.4296 240.578 47.5708 240.688C48.0225 241.03 48.3663 241.495 48.5614 242.027V242.027Z" fill="#6C63FF"/>
<path opacity="0.1" d="M32.1735 267.894L51.6369 263.479L47.215 244.047L27.7516 248.462L32.1735 267.894Z" fill="black"/>
<path d="M32.5385 267.314L52.0019 262.9L47.5799 243.468L28.1165 247.883L32.5385 267.314Z" fill="#EDEDF4"/>
<path d="M45.7306 253.672C45.4067 252.255 44.5328 251.024 43.3006 250.249C42.0684 249.475 40.5787 249.22 39.1586 249.541C39.0199 249.572 38.8763 249.611 38.7497 249.65L40.0592 255.395L45.8134 254.09C45.789 253.956 45.7623 253.811 45.7306 253.672Z" fill="#6C63FF"/>
<path d="M45.1732 255.099L39.4166 256.404L38.1095 250.659C37.1058 250.969 36.2122 251.56 35.5347 252.361C34.8571 253.163 34.4241 254.142 34.2867 255.182C34.1494 256.222 34.3137 257.279 34.76 258.229C35.2064 259.178 35.9161 259.98 36.805 260.539C37.6939 261.098 38.7248 261.391 39.7754 261.383C40.826 261.375 41.8522 261.066 42.7325 260.494C43.6127 259.921 44.31 259.109 44.7418 258.152C45.1735 257.196 45.3215 256.136 45.1683 255.099H45.1732Z" fill="#6C63FF"/>
<path d="M36.3984 254.561C36.6667 254.709 36.9223 254.878 37.1627 255.067C37.4039 255.26 37.5707 255.53 37.6349 255.832C37.6538 255.92 37.6453 256.012 37.6105 256.095C37.5916 256.135 37.5605 256.168 37.5217 256.19C37.4829 256.212 37.4382 256.221 37.3939 256.216C37.3433 256.202 37.2967 256.176 37.2576 256.141C37.1043 256.024 36.9436 255.915 36.7708 255.813C36.7099 255.776 36.6345 255.738 36.5736 255.772C36.5451 255.789 36.5216 255.813 36.5055 255.842C36.4445 255.926 36.4083 256.025 36.4008 256.129C36.4124 256.22 36.4445 256.307 36.4947 256.384C36.5448 256.461 36.6118 256.526 36.6905 256.574C36.8483 256.668 36.9836 256.796 37.0872 256.948C37.1009 256.969 37.1104 256.992 37.115 257.017C37.1196 257.041 37.1192 257.067 37.114 257.091C37.1002 257.129 37.0757 257.162 37.0434 257.186C36.8999 257.313 36.7303 257.407 36.5466 257.461C36.3628 257.516 36.1694 257.53 35.9797 257.502C35.7363 257.463 35.4929 257.349 35.2349 257.32C35.1275 257.317 35.0206 257.303 34.916 257.278C34.8385 257.249 34.7676 257.205 34.7075 257.148C34.6473 257.092 34.599 257.023 34.5655 256.948C34.4986 256.793 34.4559 256.629 34.4389 256.462C34.3258 255.831 34.3209 255.186 34.4243 254.554C34.4301 254.514 34.4451 254.476 34.4682 254.442C34.4975 254.415 34.5336 254.396 34.5728 254.386C34.8576 254.289 35.303 254.032 35.6122 254.075C35.7228 254.108 35.825 254.164 35.9116 254.241C35.9919 254.297 36.3813 254.486 36.3984 254.561Z" fill="#A1616A"/>
<path d="M36.4373 254.282C36.3789 254.003 36.5688 253.252 36.0089 253.332C35.9432 253.033 36.3205 252.753 36.172 252.455C36.1233 252.357 36.0162 252.289 35.9797 252.185C35.875 251.888 36.3886 251.599 36.2231 251.327C36.1623 251.222 36.026 251.181 35.9797 251.084C35.858 250.841 36.3034 250.61 36.2523 250.335C36.2329 250.246 36.1598 250.17 36.1428 250.078C36.1462 249.962 36.1762 249.848 36.2304 249.745C36.3156 249.458 36.155 249.079 36.3862 248.887C36.2158 248.943 36.099 248.7 36.1428 248.527C36.1866 248.355 36.2937 248.185 36.2548 248.012C36.2314 247.951 36.2158 247.888 36.2085 247.823C36.2085 247.645 36.4884 247.58 36.4957 247.393C36.4885 247.329 36.4763 247.265 36.4592 247.203C36.4635 247.136 36.4863 247.072 36.5249 247.017C36.5636 246.962 36.6166 246.919 36.6783 246.892C36.8033 246.842 36.9179 246.77 37.0166 246.678C37.0824 246.6 37.1529 246.476 37.26 246.51C37.2966 246.51 37.3209 246.557 37.3525 246.578C37.4815 246.673 37.6665 246.578 37.7761 246.459C37.9243 246.275 38.0346 246.063 38.1006 245.835C38.1666 245.608 38.187 245.37 38.1606 245.135C38.1412 244.661 38.0316 244.195 38.0292 243.723C38.0292 243.576 38.0389 243.429 38.0584 243.283C38.1082 243.137 38.1417 242.985 38.1582 242.831C38.1193 242.564 37.6154 242.868 37.4158 242.941C37.2185 243.003 37.0278 243.084 36.8462 243.184C36.6572 243.308 36.4752 243.443 36.301 243.587C35.5562 244.139 34.5704 244.411 34.0471 245.171C33.8742 245.414 33.7501 245.728 33.4872 245.883C33.3637 245.939 33.2434 246.001 33.127 246.071C32.8446 246.289 32.8836 246.717 32.7886 247.057C32.7532 247.149 32.7248 247.243 32.7034 247.339C32.6953 247.45 32.7043 247.561 32.7302 247.67L32.8884 248.467C33.1231 249.807 33.4484 251.129 33.8621 252.425C34.0416 252.838 34.1376 253.281 34.1444 253.73C34.1444 253.849 34.1128 253.973 34.1103 254.09C34.1126 254.232 34.1298 254.372 34.1615 254.51L34.2588 255.028C34.2597 255.049 34.265 255.07 34.2742 255.089C34.2834 255.109 34.2964 255.126 34.3124 255.14C34.3352 255.151 34.3601 255.156 34.3854 255.156C34.4107 255.156 34.4356 255.151 34.4584 255.14C35.157 254.914 35.7874 254.348 36.5176 254.438" fill="#3F3D56"/>
<path d="M49.2673 249.174C49.3025 249.182 49.3351 249.199 49.3623 249.222C49.4588 249.302 49.5268 249.411 49.5562 249.533C49.5856 249.655 49.5747 249.783 49.5253 249.898C49.5126 249.921 49.5043 249.947 49.501 249.973C49.5045 250.013 49.5207 250.051 49.5473 250.08C49.597 250.14 49.6276 250.214 49.6349 250.291C49.6423 250.369 49.6262 250.447 49.5886 250.515C49.5497 250.569 49.484 250.605 49.4621 250.671C49.4256 250.78 49.5375 250.885 49.5497 250.999C49.5643 251.152 49.4061 251.264 49.2625 251.317C49.2091 251.345 49.1498 251.359 49.0896 251.359C49.0295 251.359 48.9702 251.345 48.9168 251.317C48.8783 251.28 48.8513 251.232 48.8393 251.179C48.8272 251.126 48.8304 251.072 48.8487 251.021C48.8875 250.921 48.9454 250.829 49.0191 250.751C48.9382 250.765 48.8548 250.751 48.7839 250.709C48.7129 250.668 48.6591 250.602 48.632 250.525C48.6082 250.447 48.6044 250.364 48.621 250.284C48.6376 250.205 48.674 250.13 48.727 250.068C48.7576 250.04 48.7774 250.002 48.783 249.961C48.783 249.908 48.7294 249.871 48.6832 249.842C48.486 249.713 48.2572 249.334 48.5517 249.174C48.6558 249.131 48.7677 249.11 48.8803 249.113C48.9679 249.113 48.9777 249.169 49.0483 249.188C49.1189 249.208 49.1919 249.162 49.2673 249.174Z" fill="#A1616A"/>
<path opacity="0.1" d="M43.3671 238.404C43.4494 238.386 43.5345 238.387 43.6163 238.407C43.698 238.427 43.7743 238.465 43.8393 238.518C43.9831 238.666 44.0884 238.847 44.146 239.045C44.3956 239.664 44.7654 240.227 45.2341 240.702" fill="black"/>
<path opacity="0.1" d="M42.8876 238.996C43.0016 238.973 43.1198 238.98 43.2304 239.016C43.341 239.052 43.4402 239.117 43.5181 239.203C43.6345 239.365 43.7248 239.545 43.7858 239.735C43.9821 240.143 44.2634 240.504 44.611 240.795" fill="black"/>
<g filter="url(#filter0_d)">
<path d="M75.3981 39.4C76.9981 39.96 78.2515 40.84 79.1581 42.04C80.0648 43.2133 80.5181 44.64 80.5181 46.32C80.5181 48.7733 79.5315 50.6667 77.5581 52C75.5848 53.3333 72.7315 54 68.9981 54H53.8781V26H68.1981C71.7715 26 74.4915 26.6667 76.3581 28C78.2248 29.3067 79.1581 31.08 79.1581 33.32C79.1581 34.6533 78.8248 35.8533 78.1581 36.92C77.5181 37.96 76.5981 38.7867 75.3981 39.4ZM61.7181 31.72V37.12H67.1581C69.8248 37.12 71.1581 36.2133 71.1581 34.4C71.1581 32.6133 69.8248 31.72 67.1581 31.72H61.7181ZM68.3581 48.28C71.1315 48.28 72.5181 47.3333 72.5181 45.44C72.5181 43.5467 71.1315 42.6 68.3581 42.6H61.7181V48.28H68.3581ZM107.06 32.32V54H99.8203V51.68C99.0203 52.56 98.0603 53.2267 96.9403 53.68C95.8203 54.1333 94.6336 54.36 93.3803 54.36C90.5803 54.36 88.3403 53.5333 86.6603 51.88C85.007 50.2267 84.1803 47.7467 84.1803 44.44V32.32H91.7803V43.2C91.7803 44.8267 92.087 46.0133 92.7003 46.76C93.3136 47.5067 94.207 47.88 95.3803 47.88C96.5803 47.88 97.5536 47.4667 98.3003 46.64C99.0736 45.7867 99.4603 44.4933 99.4603 42.76V32.32H107.06ZM111.956 32.32H119.556V54H111.956V32.32ZM115.756 29.92C114.369 29.92 113.249 29.5333 112.396 28.76C111.542 27.9867 111.116 27.0267 111.116 25.88C111.116 24.7333 111.542 23.7733 112.396 23C113.249 22.2267 114.369 21.84 115.756 21.84C117.142 21.84 118.262 22.2133 119.116 22.96C119.969 23.68 120.396 24.6133 120.396 25.76C120.396 26.96 119.969 27.96 119.116 28.76C118.262 29.5333 117.142 29.92 115.756 29.92ZM124.495 24.32H132.095V54H124.495V24.32ZM160.074 24.32V54H152.834V51.84C151.42 53.52 149.3 54.36 146.474 54.36C144.5 54.36 142.7 53.9067 141.074 53C139.447 52.0667 138.154 50.7467 137.194 49.04C136.26 47.3333 135.794 45.36 135.794 43.12C135.794 40.88 136.26 38.92 137.194 37.24C138.154 35.5333 139.447 34.2267 141.074 33.32C142.7 32.4133 144.5 31.96 146.474 31.96C149.06 31.96 151.06 32.7067 152.474 34.2V24.32H160.074ZM148.074 48.32C149.38 48.32 150.46 47.8667 151.314 46.96C152.167 46.0267 152.594 44.7467 152.594 43.12C152.594 41.52 152.167 40.2667 151.314 39.36C150.487 38.4533 149.407 38 148.074 38C146.74 38 145.647 38.4533 144.794 39.36C143.94 40.2667 143.514 41.52 143.514 43.12C143.514 44.7467 143.94 46.0267 144.794 46.96C145.647 47.8667 146.74 48.32 148.074 48.32ZM187.123 43.2C187.123 43.2533 187.083 43.88 187.003 45.08H171.243C171.563 46.2 172.177 47.0667 173.083 47.68C174.017 48.2667 175.177 48.56 176.563 48.56C177.603 48.56 178.497 48.4133 179.243 48.12C180.017 47.8267 180.79 47.3467 181.563 46.68L185.563 50.84C183.457 53.1867 180.377 54.36 176.323 54.36C173.79 54.36 171.563 53.88 169.643 52.92C167.723 51.96 166.23 50.6267 165.163 48.92C164.123 47.2133 163.603 45.28 163.603 43.12C163.603 40.9867 164.11 39.08 165.123 37.4C166.163 35.6933 167.59 34.36 169.403 33.4C171.217 32.44 173.257 31.96 175.523 31.96C177.683 31.96 179.643 32.4133 181.403 33.32C183.163 34.2 184.55 35.4933 185.563 37.2C186.603 38.88 187.123 40.88 187.123 43.2ZM175.563 37.36C174.39 37.36 173.403 37.6933 172.603 38.36C171.83 39.0267 171.337 39.9333 171.123 41.08H180.003C179.79 39.9333 179.283 39.0267 178.483 38.36C177.71 37.6933 176.737 37.36 175.563 37.36ZM197.868 34.92C198.641 33.9333 199.641 33.2 200.868 32.72C202.121 32.2133 203.548 31.96 205.148 31.96V38.8C204.454 38.72 203.881 38.68 203.428 38.68C201.801 38.68 200.521 39.12 199.588 40C198.681 40.88 198.228 42.2267 198.228 44.04V54H190.628V32.32H197.868V34.92ZM81.57 87.4C83.17 87.96 84.4233 88.84 85.33 90.04C86.2367 91.2133 86.69 92.64 86.69 94.32C86.69 96.7733 85.7033 98.6667 83.73 100C81.7567 101.333 78.9033 102 75.17 102H60.05V74H74.37C77.9433 74 80.6633 74.6667 82.53 76C84.3967 77.3067 85.33 79.08 85.33 81.32C85.33 82.6533 84.9967 83.8533 84.33 84.92C83.69 85.96 82.77 86.7867 81.57 87.4ZM67.89 79.72V85.12H73.33C75.9967 85.12 77.33 84.2133 77.33 82.4C77.33 80.6133 75.9967 79.72 73.33 79.72H67.89ZM74.53 96.28C77.3033 96.28 78.69 95.3333 78.69 93.44C78.69 91.5467 77.3033 90.6 74.53 90.6H67.89V96.28H74.53ZM90.4322 72.32H98.0322V102H90.4322V72.32ZM113.851 102.36C111.531 102.36 109.438 101.88 107.571 100.92C105.705 99.96 104.238 98.6267 103.171 96.92C102.131 95.2133 101.611 93.28 101.611 91.12C101.611 88.9867 102.131 87.0667 103.171 85.36C104.238 83.6533 105.691 82.3333 107.531 81.4C109.398 80.44 111.505 79.96 113.851 79.96C116.198 79.96 118.305 80.44 120.171 81.4C122.038 82.3333 123.491 83.6533 124.531 85.36C125.571 87.04 126.091 88.96 126.091 91.12C126.091 93.28 125.571 95.2133 124.531 96.92C123.491 98.6267 122.038 99.96 120.171 100.92C118.305 101.88 116.198 102.36 113.851 102.36ZM113.851 96.32C115.185 96.32 116.278 95.8667 117.131 94.96C117.985 94.0267 118.411 92.7467 118.411 91.12C118.411 89.52 117.985 88.2667 117.131 87.36C116.278 86.4533 115.185 86 113.851 86C112.518 86 111.425 86.4533 110.571 87.36C109.718 88.2667 109.291 89.52 109.291 91.12C109.291 92.7467 109.718 94.0267 110.571 94.96C111.425 95.8667 112.518 96.32 113.851 96.32ZM140.692 102.36C138.292 102.36 136.145 101.88 134.252 100.92C132.359 99.96 130.879 98.6267 129.812 96.92C128.772 95.2133 128.252 93.28 128.252 91.12C128.252 88.96 128.772 87.04 129.812 85.36C130.879 83.6533 132.359 82.3333 134.252 81.4C136.145 80.44 138.292 79.96 140.692 79.96C143.145 79.96 145.265 80.4933 147.052 81.56C148.839 82.6 150.105 84.0533 150.852 85.92L144.972 88.92C143.985 86.9733 142.545 86 140.652 86C139.292 86 138.159 86.4533 137.252 87.36C136.372 88.2667 135.932 89.52 135.932 91.12C135.932 92.7467 136.372 94.0267 137.252 94.96C138.159 95.8667 139.292 96.32 140.652 96.32C142.545 96.32 143.985 95.3467 144.972 93.4L150.852 96.4C150.105 98.2667 148.839 99.7333 147.052 100.8C145.265 101.84 143.145 102.36 140.692 102.36ZM163.475 94.4L161.235 96.68V102H153.635V72.32H161.235V87.88L168.995 80.32H177.995L168.995 89.6L178.755 102H169.555L163.475 94.4ZM188.195 102.36C186.382 102.36 184.595 102.16 182.835 101.76C181.075 101.333 179.662 100.787 178.595 100.12L180.875 94.92C181.862 95.5333 183.035 96.0267 184.395 96.4C185.755 96.7467 187.102 96.92 188.435 96.92C189.662 96.92 190.528 96.8 191.035 96.56C191.568 96.2933 191.835 95.92 191.835 95.44C191.835 94.96 191.515 94.6267 190.875 94.44C190.262 94.2267 189.275 94.0267 187.915 93.84C186.182 93.6267 184.702 93.3467 183.475 93C182.275 92.6533 181.235 92.0133 180.355 91.08C179.475 90.1467 179.035 88.84 179.035 87.16C179.035 85.7733 179.448 84.5467 180.275 83.48C181.102 82.3867 182.302 81.5333 183.875 80.92C185.475 80.28 187.382 79.96 189.595 79.96C191.168 79.96 192.728 80.12 194.275 80.44C195.822 80.76 197.115 81.2133 198.155 81.8L195.875 86.96C193.955 85.8933 191.875 85.36 189.635 85.36C188.435 85.36 187.555 85.5067 186.995 85.8C186.435 86.0667 186.155 86.4267 186.155 86.88C186.155 87.3867 186.462 87.7467 187.075 87.96C187.688 88.1467 188.702 88.3467 190.115 88.56C191.902 88.8267 193.382 89.1333 194.555 89.48C195.728 89.8267 196.742 90.4667 197.595 91.4C198.475 92.3067 198.915 93.5867 198.915 95.24C198.915 96.6 198.502 97.8267 197.675 98.92C196.848 99.9867 195.622 100.827 193.995 101.44C192.395 102.053 190.462 102.36 188.195 102.36Z" fill="white"/>
</g>
</g>
<defs>
<filter id="filter0_d" x="43.8781" y="11.84" width="171.269" height="100.52" filterUnits="userSpaceOnUse" color-interpolation-filters="sRGB">
<feFlood flood-opacity="0" result="BackgroundImageFix"/>
<feColorMatrix in="SourceAlpha" type="matrix" values="0 0 0 0 0 0 0 0 0 0 0 0 0 0 0 0 0 0 127 0"/>
<feOffset/>
<feGaussianBlur stdDeviation="5"/>
<feColorMatrix type="matrix" values="0 0 0 0 0 0 0 0 0 0 0 0 0 0 0 0 0 0 0.25 0"/>
<feBlend mode="normal" in2="BackgroundImageFix" result="effect1_dropShadow"/>
<feBlend mode="normal" in="SourceGraphic" in2="effect1_dropShadow" result="shape"/>
</filter>
<linearGradient id="paint0_linear" x1="432" y1="-204" x2="-36.0001" y2="468" gradientUnits="userSpaceOnUse">
<stop stop-color="#F5AF19"/>
<stop offset="1" stop-color="#F12711"/>
</linearGradient>
<linearGradient id="paint1_linear" x1="432" y1="-204" x2="-36.0001" y2="468" gradientUnits="userSpaceOnUse">
<stop stop-color="#F5AF19"/>
<stop offset="1" stop-color="#F12711"/>
</linearGradient>
<linearGradient id="paint2_linear" x1="128" y1="282.071" x2="128" y2="131.645" gradientUnits="userSpaceOnUse">
<stop stop-color="#808080" stop-opacity="0.25"/>
<stop offset="0.54" stop-color="#808080" stop-opacity="0.12"/>
<stop offset="1" stop-color="#808080" stop-opacity="0.1"/>
</linearGradient>
<linearGradient id="paint3_linear" x1="-1337.04" y1="698.654" x2="-1328.28" y2="698.654" gradientUnits="userSpaceOnUse">
<stop stop-color="#808080" stop-opacity="0.25"/>
<stop offset="0.54" stop-color="#808080" stop-opacity="0.12"/>
<stop offset="1" stop-color="#808080" stop-opacity="0.1"/>
</linearGradient>
<linearGradient id="paint4_linear" x1="35872" y1="40228.9" x2="35872" y2="30491.7" gradientUnits="userSpaceOnUse">
<stop stop-color="#808080" stop-opacity="0.25"/>
<stop offset="0.54" stop-color="#808080" stop-opacity="0.12"/>
<stop offset="1" stop-color="#808080" stop-opacity="0.1"/>
</linearGradient>
<linearGradient id="paint5_linear" x1="-8903.09" y1="44474.8" x2="-8903.09" y2="32623.2" gradientUnits="userSpaceOnUse">
<stop stop-color="#808080" stop-opacity="0.25"/>
<stop offset="0.54" stop-color="#808080" stop-opacity="0.12"/>
<stop offset="1" stop-color="#808080" stop-opacity="0.1"/>
</linearGradient>
<linearGradient id="paint6_linear" x1="-3058.23" y1="41363.5" x2="-5256.19" y2="31556.7" gradientUnits="userSpaceOnUse">
<stop stop-color="#808080" stop-opacity="0.25"/>
<stop offset="0.54" stop-color="#808080" stop-opacity="0.12"/>
<stop offset="1" stop-color="#808080" stop-opacity="0.1"/>
</linearGradient>
</defs>
</svg>
